<?xml version="1.0" encoding="UTF-8" standalone="no"?>
<svg
   xmlns:dc="http://purl.org/dc/elements/1.1/"
   xmlns:cc="http://creativecommons.org/ns#"
   xmlns:rdf="http://www.w3.org/1999/02/22-rdf-syntax-ns#"
   xmlns:svg="http://www.w3.org/2000/svg"
   xmlns="http://www.w3.org/2000/svg"
   xmlns:sodipodi="http://sodipodi.sourceforge.net/DTD/sodipodi-0.dtd"
   xmlns:inkscape="http://www.inkscape.org/namespaces/inkscape"
   version="1.0"
   width="58mm"
   height="58mm"
   viewBox="0 0 164.40942 164.40941"
   preserveAspectRatio="xMidYMid meet"
   id="svg1560"
   sodipodi:docname="Cognitive_Agility.svg"
   inkscape:version="1.0.2-2 (e86c870879, 2021-01-15)">
  <defs
     id="defs1564" />
  <sodipodi:namedview
     pagecolor="#ffffff"
     bordercolor="#666666"
     borderopacity="1"
     objecttolerance="10"
     gridtolerance="10"
     guidetolerance="10"
     inkscape:pageopacity="0"
     inkscape:pageshadow="2"
     inkscape:window-width="1858"
     inkscape:window-height="1057"
     id="namedview1562"
     showgrid="false"
     units="mm"
     height="104mm"
     inkscape:zoom="0.98025706"
     inkscape:cx="188.53936"
     inkscape:cy="213.96373"
     inkscape:window-x="54"
     inkscape:window-y="-8"
     inkscape:window-maximized="1"
     inkscape:current-layer="g1558" />
  <metadata
     id="metadata1510">
Created by potrace 1.16, written by Peter Selinger 2001-2019
<rdf:RDF>
  <cc:Work
     rdf:about="">
    <dc:format>image/svg+xml</dc:format>
    <dc:type
       rdf:resource="http://purl.org/dc/dcmitype/StillImage" />
    <dc:title></dc:title>
  </cc:Work>
</rdf:RDF>
</metadata>
  <g
     transform="matrix(0.1,0,0,-0.1,0,963)"
     fill="#000000"
     stroke="none"
     id="g1558">
    <path
       d="m 462.69431,9359.8137 c -22,-24 -23,-72 -2,-72 10,0 15,10 15,30 v 30 h 75 75 v -435 -435 h -75 c -73,0 -75,1 -75,25 0,16 -6,25 -15,25 -19,0 -19,-38 -1,-62 12,-17 40,-18 331,-18 290.99999,0 318.99999,1 330.99999,18 11,13 13,105 14,448 0,405 -1,432 -18,447 -16,15 -54,17 -328.99999,17 -288,0 -311,-1 -326,-18 z m 642.99999,-447 v -435 h -224.99999 -225 v 435 435 h 225 224.99999 z"
       id="path1536"
       style="fill:#4f6d84;fill-opacity:1" />
    <path
       d="m 1170.6943,9304.8137 c -3,-6 -4,-187 -3,-401 2,-301 6,-390 16,-394 9,-3 12,82 12,402 0,272 -3,406 -10,406 -6,0 -13,-6 -15,-13 z"
       id="path1538"
       style="fill:#4f6d84;fill-opacity:1" />
    <path
       style="fill:none;stroke:#4f6d84;stroke-width:19.8305;stroke-linecap:butt;stroke-linejoin:miter;stroke-miterlimit:4;stroke-dasharray:none;stroke-opacity:1"
       d="M 396.59336,9199.2785 H 546.04772"
       id="path2700-9" />
    <path
       style="fill:none;stroke:#4f6d84;stroke-width:19.8305;stroke-linecap:butt;stroke-linejoin:miter;stroke-miterlimit:4;stroke-dasharray:none;stroke-opacity:1"
       d="M 397.06141,8799.8641 H 546.51577"
       id="path2700-9-1" />
    <path
       style="fill:none;stroke:#4f6d84;stroke-width:19.8305;stroke-linecap:butt;stroke-linejoin:miter;stroke-miterlimit:4;stroke-dasharray:none;stroke-opacity:1"
       d="M 397.00682,8879.7084 H 546.46118"
       id="path2700-9-14" />
    <path
       style="fill:none;stroke:#4f6d84;stroke-width:19.8305;stroke-linecap:butt;stroke-linejoin:miter;stroke-miterlimit:4;stroke-dasharray:none;stroke-opacity:1"
       d="M 396.9488,8959.5937 H 546.40316"
       id="path2700-9-8" />
    <path
       style="fill:none;stroke:#4f6d84;stroke-width:19.8305;stroke-linecap:butt;stroke-linejoin:miter;stroke-miterlimit:4;stroke-dasharray:none;stroke-opacity:1"
       d="M 396.70971,9119.2107 H 546.16407"
       id="path2700-9-7" />
    <path
       style="fill:none;stroke:#4f6d84;stroke-width:19.8305;stroke-linecap:butt;stroke-linejoin:miter;stroke-miterlimit:4;stroke-dasharray:none;stroke-opacity:1"
       d="M 397.04916,8719.7844 H 546.50352"
       id="path2700-9-1-1" />
    <path
       style="fill:none;stroke:#4f6d84;stroke-width:19.8305;stroke-linecap:butt;stroke-linejoin:miter;stroke-miterlimit:4;stroke-dasharray:none;stroke-opacity:1"
       d="M 396.85109,8639.7284 H 546.30545"
       id="path2700-9-1-2" />
    <path
       style="fill:none;stroke:#4f6d84;stroke-width:19.8305;stroke-linecap:butt;stroke-linejoin:miter;stroke-miterlimit:4;stroke-dasharray:none;stroke-opacity:1"
       d="M 396.89898,9039.438 H 546.35334"
       id="path2700-9-7-3" />
    <path
       style="fill:none;stroke:#4f6d84;stroke-width:18.75;stroke-linecap:butt;stroke-linejoin:miter;stroke-miterlimit:4;stroke-dasharray:none;stroke-opacity:1"
       d="M 15.93202,9614.4793 V 8013.7623 H 1614.9327 v 1599.1588 z"
       id="path2965" />
  </g>
</svg>
