<?xml version="1.0" encoding="UTF-8" standalone="no"?>
<svg
   xmlns:dc="http://purl.org/dc/elements/1.1/"
   xmlns:cc="http://creativecommons.org/ns#"
   xmlns:rdf="http://www.w3.org/1999/02/22-rdf-syntax-ns#"
   xmlns:svg="http://www.w3.org/2000/svg"
   xmlns="http://www.w3.org/2000/svg"
   xmlns:sodipodi="http://sodipodi.sourceforge.net/DTD/sodipodi-0.dtd"
   xmlns:inkscape="http://www.inkscape.org/namespaces/inkscape"
   version="1.0"
   width="58mm"
   height="57mm"
   viewBox="0 0 164.40941 161.57477"
   preserveAspectRatio="xMidYMid meet"
   id="svg3017"
   sodipodi:docname="Curious.svg"
   inkscape:version="1.0.2-2 (e86c870879, 2021-01-15)">
  <defs
     id="defs3021" />
  <sodipodi:namedview
     pagecolor="#ffffff"
     bordercolor="#666666"
     borderopacity="1"
     objecttolerance="10"
     gridtolerance="10"
     guidetolerance="10"
     inkscape:pageopacity="0"
     inkscape:pageshadow="2"
     inkscape:window-width="1858"
     inkscape:window-height="1057"
     id="namedview3019"
     showgrid="false"
     units="mm"
     height="104mm"
     inkscape:zoom="1.3862928"
     inkscape:cx="-94.714399"
     inkscape:cy="133.11225"
     inkscape:window-x="54"
     inkscape:window-y="-8"
     inkscape:window-maximized="1"
     inkscape:current-layer="g3015" />
  <metadata
     id="metadata2967">
Created by potrace 1.16, written by Peter Selinger 2001-2019
<rdf:RDF>
  <cc:Work
     rdf:about="">
    <dc:format>image/svg+xml</dc:format>
    <dc:type
       rdf:resource="http://purl.org/dc/dcmitype/StillImage" />
    <dc:title></dc:title>
  </cc:Work>
</rdf:RDF>
</metadata>
  <g
     transform="matrix(0.1,0,0,-0.1,0,963)"
     fill="#000000"
     stroke="none"
     id="g3015"
     style="fill:#4f6d84;fill-opacity:1">
    <path
       d="m 731.9596,9338.7349 c -71,-24 -127,-65 -167,-120 -93,-129 -85,-285 19,-401 85,-94 89,-100 95,-147 3,-26 12,-49 20,-54 12,-6 102,-27 238,-55 17,-3 23,-1 20,8 -3,7 -22,16 -44,20 -21,4 -75,16 -119,25 -80,18 -80,18 -83,52 -4,42 -22,71 -88,141 -79,86 -89,109 -89,220 0,86 3,100 27,142 31,52 95,111 148,136 54,26 192,23 251,-5 55,-26 112,-81 142,-137 18,-34 22,-57 22,-136 0,-111 -10,-134 -89,-220 -59,-62 -86,-102 -86,-125 0,-19 -11,-19 -80,-1 -33,9 -59,11 -64,6 -11,-11 -6,-13 83,-35 70,-17 91,-10 91,30 0,25 20,54 95,135 79,88 103,194 68,303 -37,116 -100,178 -224,221 -57,20 -121,19 -186,-3 z"
       id="path2991"
       style="fill:#4f6d84;fill-opacity:1" />
  </g>
  <path
     style="fill:none;stroke:#4f6d84;stroke-width:1.35;stroke-linecap:butt;stroke-linejoin:miter;stroke-miterlimit:4;stroke-dasharray:none;stroke-opacity:1"
     d="m 72.327068,107.41812 21.29145,5.10469"
     id="path3584"
     sodipodi:nodetypes="cc" />
  <path
     style="fill:none;stroke:#4f6d84;stroke-width:1.35;stroke-linecap:butt;stroke-linejoin:miter;stroke-miterlimit:4;stroke-dasharray:none;stroke-opacity:1"
     d="m 72.882965,113.89163 18.254938,4.22004"
     id="path3584-9"
     sodipodi:nodetypes="cc" />
  <path
     style="fill:none;stroke:#4f6d84;stroke-width:1.65;stroke-linecap:butt;stroke-linejoin:miter;stroke-miterlimit:4;stroke-dasharray:none;stroke-opacity:1"
     d="M 1.8859179,1.7199134 H 161.62852 V 160.00268 H 2.1996781 Z"
     id="path3642" />
</svg>
