<?xml version="1.0" encoding="UTF-8" standalone="no"?>
<svg
   xmlns:dc="http://purl.org/dc/elements/1.1/"
   xmlns:cc="http://creativecommons.org/ns#"
   xmlns:rdf="http://www.w3.org/1999/02/22-rdf-syntax-ns#"
   xmlns:svg="http://www.w3.org/2000/svg"
   xmlns="http://www.w3.org/2000/svg"
   xmlns:sodipodi="http://sodipodi.sourceforge.net/DTD/sodipodi-0.dtd"
   xmlns:inkscape="http://www.inkscape.org/namespaces/inkscape"
   version="1.0"
   width="58mm"
   height="58mm"
   viewBox="0 0 164.40942 164.40942"
   preserveAspectRatio="xMidYMid meet"
   id="svg3694"
   sodipodi:docname="Life_Long_Learner.svg"
   inkscape:version="1.0.2-2 (e86c870879, 2021-01-15)">
  <defs
     id="defs3698" />
  <sodipodi:namedview
     pagecolor="#ffffff"
     bordercolor="#666666"
     borderopacity="1"
     objecttolerance="10"
     gridtolerance="10"
     guidetolerance="10"
     inkscape:pageopacity="0"
     inkscape:pageshadow="2"
     inkscape:window-width="1858"
     inkscape:window-height="1057"
     id="namedview3696"
     showgrid="false"
     inkscape:zoom="2.7725857"
     inkscape:cx="177.85342"
     inkscape:cy="144.37526"
     inkscape:window-x="54"
     inkscape:window-y="-8"
     inkscape:window-maximized="1"
     inkscape:current-layer="g3692"
     units="mm"
     width="75mm" />
  <metadata
     id="metadata3644">
Created by potrace 1.16, written by Peter Selinger 2001-2019
<rdf:RDF>
  <cc:Work
     rdf:about="">
    <dc:format>image/svg+xml</dc:format>
    <dc:type
       rdf:resource="http://purl.org/dc/dcmitype/StillImage" />
    <dc:title></dc:title>
  </cc:Work>
</rdf:RDF>
</metadata>
  <g
     transform="matrix(0.1,0,0,-0.1,0,963)"
     fill="#000000"
     stroke="none"
     id="g3692">
    <path
       d="m 761.65449,9395.9579 c -34,-22 -92,-103 -101,-142 l -6,-27 -87,5 c -76,4 -93,2 -132,-18 -36,-18 -47,-30 -54,-58 -11,-48 7,-109 49,-165 19,-25 35,-50 35,-55 0,-5 -16,-30 -35,-55 -42,-56 -60,-117 -49,-165 7,-28 18,-40 54,-58 39,-20 56,-22 132,-18 86,5 86,4 93,-21 17,-71 105,-163 155,-163 50,0 138,92 155,163 7,25 7,26 93.00001,21 76,-4 93,-2 132,18 36,18 47,30 54,58 11,48 -7,109 -49,165 -19,25 -35,50 -35,55 0,5 16,30 35,55 42,56 60,117 49,165 -7,28 -18,40 -54,58 -39,20 -56,22 -132,18 -86.00001,-5 -86.00001,-4 -93.00001,21 -10,43 -68,123 -103,143 -41,24 -68,24 -106,0 z m 112,-35 c 16,-13 42,-50 58,-80 23,-48 26,-58 13,-66 -7,-5 -21,-9 -29,-9 -9,0 -22,-6 -28,-12 -7,-7 -38,-13 -72,-13 -34,0 -65,6 -72,13 -6,6 -19,12 -28,12 -8,0 -22,4 -29,9 -13,8 -10,18 13,66 34,66 77,105 116,105 16,0 42,-11 58,-25 z m -242,-192 c -3,-21 -6,-51 -6,-67 0,-22 -13,-41 -57,-82 -32,-30 -65,-54 -75,-54 -21,0 -88,101 -95,145 -5,29 -1,39 25,65 30,29 33,30 123,30 h 92 z m 576.00001,7 c 26,-26 30,-36 25,-65 -7,-44 -74,-145 -95,-145 -10,0 -43,24 -74,54 -45,41 -58,60 -58,82 0,16 -3,46 -6.00001,67 l -7,37 h 92.00001 c 90,0 93,-1 123,-30 z m -292.00001,-89 75,-47 v -104 -104 l -75,-47 c -41,-26 -86,-48 -100,-48 -14,0 -59,22 -100,48 l -75,47 v 104 104 l 75,47 c 41,26 86,48 100,48 14,0 59,-22 100,-48 z m -347,-235 c 44,-41 57,-60 57,-82 0,-16 3,-46 6,-66 l 7,-38 h -92 c -90,0 -93,1 -123,30 -26,26 -30,36 -25,65 7,44 74,145 95,145 10,0 43,-24 75,-54 z m 622.00001,-1 c 20,-31 39,-71 42,-90 5,-29 1,-39 -25,-65 -30,-29 -33,-30 -123,-30 h -92.00001 l 7,38 c 3.00001,20 6.00001,50 6.00001,66 0,22 13,41 58,82 31,30 64,54 74,54 9,0 33,-25 53,-55 z m -301.00001,-175 c 6,-6 17,-10 25,-10 9,0 23,-4 30,-9 13,-8 10,-18 -13,-66 -16,-30 -42,-67 -58,-80 -59,-50 -122,-21 -174,80 -23,48 -26,58 -13,66 7,5 21,9 30,9 8,0 19,4 25,9 22,22 127,22 148,1 z"
       id="path3664"
       style="fill:#4f6d84;fill-opacity:1" />
    <path
       d="m 765.65449,8985.9579 c -43,-43 -11,-120 50,-120 38,0 70,32 70,70 0,38 -32,70 -70,70 -17,0 -39,-9 -50,-20 z"
       id="path3666"
       style="fill:none;fill-opacity:1;stroke:#4f6d84;stroke-width:16.7475;stroke-miterlimit:4;stroke-dasharray:none;stroke-opacity:1" />
    <path
       style="fill:none;stroke:#4f6d84;stroke-width:18.75;stroke-linecap:butt;stroke-linejoin:miter;stroke-miterlimit:4;stroke-dasharray:none;stroke-opacity:1"
       d="M 16.230338,9611.7409 V 8010.3476 H 1614.8929 v 1602.0696 z"
       id="path4269" />
  </g>
</svg>
