<?xml version="1.0" encoding="UTF-8" standalone="no"?>
<svg
   xmlns:dc="http://purl.org/dc/elements/1.1/"
   xmlns:cc="http://creativecommons.org/ns#"
   xmlns:rdf="http://www.w3.org/1999/02/22-rdf-syntax-ns#"
   xmlns:svg="http://www.w3.org/2000/svg"
   xmlns="http://www.w3.org/2000/svg"
   xmlns:sodipodi="http://sodipodi.sourceforge.net/DTD/sodipodi-0.dtd"
   xmlns:inkscape="http://www.inkscape.org/namespaces/inkscape"
   version="1.0"
   width="58mm"
   height="58mm"
   viewBox="0 0 164.40941 164.40942"
   preserveAspectRatio="xMidYMid meet"
   id="svg941"
   sodipodi:docname="Reflection.svg"
   inkscape:version="1.0.2-2 (e86c870879, 2021-01-15)">
  <defs
     id="defs945" />
  <sodipodi:namedview
     pagecolor="#ffffff"
     bordercolor="#666666"
     borderopacity="1"
     objecttolerance="10"
     gridtolerance="10"
     guidetolerance="10"
     inkscape:pageopacity="0"
     inkscape:pageshadow="2"
     inkscape:window-width="1858"
     inkscape:window-height="1057"
     id="namedview943"
     showgrid="false"
     units="mm"
     width="73mm"
     inkscape:zoom="1.3862928"
     inkscape:cx="395.34942"
     inkscape:cy="158.4249"
     inkscape:window-x="54"
     inkscape:window-y="-8"
     inkscape:window-maximized="1"
     inkscape:current-layer="g939" />
  <metadata
     id="metadata891">
Created by potrace 1.16, written by Peter Selinger 2001-2019
<rdf:RDF>
  <cc:Work
     rdf:about="">
    <dc:format>image/svg+xml</dc:format>
    <dc:type
       rdf:resource="http://purl.org/dc/dcmitype/StillImage" />
    <dc:title></dc:title>
  </cc:Work>
</rdf:RDF>
</metadata>
  <g
     transform="matrix(0.1,0,0,-0.1,0,963)"
     fill="#000000"
     stroke="none"
     id="g939">
    <path
       d="m 713.13408,9440.5736 c -2,-3 -31,-10 -64,-16 -72,-13 -169,-59 -224,-106 l -41,-35 3,-187 c 5,-252 25,-313 141,-432 69,-71 194,-156 209,-141 6,6 -8,20 -44,40 -111,65 -205,162 -251,262 -19,40 -22,68 -25,250 l -3,206 43,30 c 84,61 162,91 256,101 l 62,6 v -467 c 0,-408 2,-466 15,-466 8,0 15,4 15,9 0,5 11,11 23,15 40,10 168.99995,101 223.99992,157 58,61 108,141 125,202 7,23 13,126 15,232 l 3,190 -50,38 c -55,42 -142,84 -203.99992,97 -23,5 -53,12 -68,16 -21,5 -28,3 -28,-8 0,-11 15,-17 48,-22 60,-8 123.99992,-32 186.99992,-70 93,-56 87,-37 83,-267 -4,-190 -6,-207 -27,-249 -40,-77 -91,-139 -159.99992,-194 -57,-46 -151,-106 -166,-106 -3,0 -5,207 -5,460 v 460 h -43 c -24,0 -46,-2 -49,-5 z"
       id="path921"
       style="fill:#4f6d84;fill-opacity:1;stroke:#4f6d84;stroke-width:0.9975;stroke-miterlimit:4;stroke-dasharray:none;stroke-opacity:1" />
    <path
       style="fill:none;stroke:#4f6d84;stroke-width:18.75;stroke-linecap:butt;stroke-linejoin:miter;stroke-miterlimit:4;stroke-dasharray:none;stroke-opacity:1"
       d="M 16.048049,9615.1697 V 8014.453 H 1617.1031 v 1598.6879 z"
       id="path1508" />
  </g>
</svg>
