<?xml version="1.0" encoding="UTF-8" standalone="no"?>
<svg
   xmlns:dc="http://purl.org/dc/elements/1.1/"
   xmlns:cc="http://creativecommons.org/ns#"
   xmlns:rdf="http://www.w3.org/1999/02/22-rdf-syntax-ns#"
   xmlns:svg="http://www.w3.org/2000/svg"
   xmlns="http://www.w3.org/2000/svg"
   xmlns:sodipodi="http://sodipodi.sourceforge.net/DTD/sodipodi-0.dtd"
   xmlns:inkscape="http://www.inkscape.org/namespaces/inkscape"
   version="1.0"
   width="58mm"
   height="58mm"
   viewBox="0 0 164.40941 164.40941"
   preserveAspectRatio="xMidYMid meet"
   id="svg8058"
   sodipodi:docname="Endurance.svg"
   inkscape:version="1.0.2-2 (e86c870879, 2021-01-15)">
  <defs
     id="defs8062" />
  <sodipodi:namedview
     pagecolor="#ffffff"
     bordercolor="#666666"
     borderopacity="1"
     objecttolerance="10"
     gridtolerance="10"
     guidetolerance="10"
     inkscape:pageopacity="0"
     inkscape:pageshadow="2"
     inkscape:window-width="1858"
     inkscape:window-height="1057"
     id="namedview8060"
     showgrid="false"
     units="mm"
     height="104mm"
     inkscape:zoom="1.3877339"
     inkscape:cx="79.384958"
     inkscape:cy="147.33617"
     inkscape:window-x="54"
     inkscape:window-y="-8"
     inkscape:window-maximized="1"
     inkscape:current-layer="g8056" />
  <metadata
     id="metadata8002">
Created by potrace 1.16, written by Peter Selinger 2001-2019
<rdf:RDF>
  <cc:Work
     rdf:about="">
    <dc:format>image/svg+xml</dc:format>
    <dc:type
       rdf:resource="http://purl.org/dc/dcmitype/StillImage" />
    <dc:title></dc:title>
  </cc:Work>
</rdf:RDF>
</metadata>
  <g
     transform="matrix(0.1,0,0,-0.1,0,962)"
     fill="#000000"
     stroke="none"
     id="g8056">
    <path
       d="m 556.78652,9382.1461 c 3,-10 65,-13 267,-13 201.99998,0 263.99998,3 267.99998,13 3,9 -55,12 -267.99998,12 -213,0 -271,-3 -267,-12 z"
       id="path8034"
       style="fill:#4f6d84;fill-opacity:1" />
    <path
       d="m 419.78652,9316.1461 c -29,-10 -58,-28 -70,-45 -30,-40 -28,-117 5,-181 27,-56 145,-180 160,-170 6,3 -16,33 -49,67 -108,113 -138,185 -107,250 21,45 67,67 139,67 h 56 v -157 c 0,-158 9,-213 43,-279 21,-41 104,-127 154,-159 38,-25 42,-31 45,-73 4,-61 22,-61 26,0 3,45 5,48 55,77 59,34 120,89 158.99998,141 47,65 58,119 58,292 v 158 h 56 c 72,0 118,-22 139,-67 30,-63 -1,-134 -112,-254 -61,-66 -57,-88 5,-28 171,164 187,320 38,363 -82,24 -728.99998,22 -799.99998,-2 z m 643.99998,-183 c 0,-152 -2,-175 -21,-216 -25,-56 -114.99998,-148 -182.99998,-187 -44,-25 -51,-27 -74,-15 -45,25 -124,102 -161,159 l -36,55 -3,188 -4,187 h 241 240.99998 z"
       id="path8036"
       style="fill:#4f6d84;fill-opacity:1" />
    <path
       d="m 605.78652,8531.1461 c -14,-15 -22,-36 -22,-60 v -37 h 225 224.99998 v 38 c 0,27 -7,45 -23,60 -21.99998,21 -31.99998,22 -202.99998,22 -176,0 -181,-1 -202,-23 z m 395.99998,-39 3,-28 h -194.99998 -196 v 23 c 0,13 3,27 7,31 4,3 90,5 192,4 l 186,-3 z"
       id="path8038"
       style="fill:#4f6d84;fill-opacity:1" />
    <path
       style="fill:none;stroke:#4f6d84;stroke-width:18.75;stroke-linecap:butt;stroke-linejoin:miter;stroke-miterlimit:4;stroke-dasharray:none;stroke-opacity:1"
       d="m 25.333569,9594.3286 0.967744,-1603.0198 1596.398087,1.2628 2.0267,1602.4326 z"
       id="path8625" />
  </g>
</svg>
