<?xml version="1.0" encoding="UTF-8" standalone="no"?>
<svg
   xmlns:dc="http://purl.org/dc/elements/1.1/"
   xmlns:cc="http://creativecommons.org/ns#"
   xmlns:rdf="http://www.w3.org/1999/02/22-rdf-syntax-ns#"
   xmlns:svg="http://www.w3.org/2000/svg"
   xmlns="http://www.w3.org/2000/svg"
   xmlns:sodipodi="http://sodipodi.sourceforge.net/DTD/sodipodi-0.dtd"
   xmlns:inkscape="http://www.inkscape.org/namespaces/inkscape"
   version="1.0"
   width="58mm"
   height="58mm"
   viewBox="0 0 164.40941 164.40941"
   preserveAspectRatio="xMidYMid meet"
   id="svg9938"
   sodipodi:docname="Focused.svg"
   inkscape:version="1.0.2-2 (e86c870879, 2021-01-15)">
  <defs
     id="defs9942" />
  <sodipodi:namedview
     pagecolor="#ffffff"
     bordercolor="#666666"
     borderopacity="1"
     objecttolerance="10"
     gridtolerance="10"
     guidetolerance="10"
     inkscape:pageopacity="0"
     inkscape:pageshadow="2"
     inkscape:window-width="1858"
     inkscape:window-height="1057"
     id="namedview9940"
     showgrid="false"
     units="mm"
     height="104mm"
     inkscape:zoom="0.98127604"
     inkscape:cx="-169.79644"
     inkscape:cy="375.75333"
     inkscape:window-x="54"
     inkscape:window-y="-8"
     inkscape:window-maximized="1"
     inkscape:current-layer="g9936" />
  <metadata
     id="metadata9882">
Created by potrace 1.16, written by Peter Selinger 2001-2019
<rdf:RDF>
  <cc:Work
     rdf:about="">
    <dc:format>image/svg+xml</dc:format>
    <dc:type
       rdf:resource="http://purl.org/dc/dcmitype/StillImage" />
    <dc:title></dc:title>
  </cc:Work>
</rdf:RDF>
</metadata>
  <g
     transform="matrix(0.1,0,0,-0.1,0,962)"
     fill="#000000"
     stroke="none"
     id="g9936">
    <path
       d="m 674.71378,9430.6748 c -8,-4 -32,-11 -52,-15 -136,-25 -288,-179 -330,-336 -15,-58 -15,-182 0,-240 43,-161 181,-299 342,-342 58,-15 182,-15 240,0 165.00002,44 305.00002,187 340.00002,350 22,100 28,103 84,36 26,-30 42,-42 48,-36 7,7 2,20 -16,39 -32,34 -33,43 -2,43 21,0 49,-27 87,-83 4,-5 12,-6 18,-2 8,5 4,17 -13,40 -32,41 -32,45 -2,45 16,0 34,-14 57,-45 32,-41 59,-58 59,-36 0,6 -16,27 -35,48 -19,21 -35,43 -35,48 0,6 16,27 35,48 19,21 35,42 35,48 0,22 -27,5 -59,-36 -23,-31 -41,-45 -57,-45 -30,0 -30,4 2,45 17,23 21,35 13,40 -6,4 -14,3 -18,-2 -38,-56 -66,-83 -87,-83 -31,0 -30,9 2,43 18,19 23,32 16,39 -6,6 -22,-6 -48,-36 -41,-50 -64,-58 -64,-25 0,39 -30,143 -58,199 -53,107 -181.00002,210 -302.00002,241 -59,15 -181,22 -200,10 z m 243,-49 c 152.00002,-60 267.00002,-208 284.00002,-364 l 6,-58 h -47 c -37,0 -46,3 -46,18 0,36 -40,146 -67,185 -60.00002,86 -192.00002,157 -293.00002,157 -60,0 -167,-39 -217,-79 -63,-49 -100,-104 -123,-182 -25,-81 -25,-115 0,-200 36,-119 120,-203 241,-239 80,-25 118,-25 198,0 122,37 205.00002,120 241.00002,241 l 21,69 h 46 45 l -7,-47 c -3,-27 -22,-79 -40,-118 -51,-107 -139,-188 -250.00002,-231 -70,-27 -228,-27 -307,1 -117,39 -234,156 -273,273 -27,79 -27,225 0,304 39,115 158,236 268,271 28,9 59,18 67,21 34,12 206,-3 253,-22 z m -18,-124 c 97,-50 170.00002,-150 182.00002,-249 l 6,-49 h -44 -44.00002 l -18,61 c -29,99 -130,179 -227,179 -89,0 -193,-77 -223,-165 -21,-61 -21,-89 0,-150 30,-88 134,-165 223,-165 87,0 194,78 222,161 14,43 16,44 63.00002,47 l 47,3 -7,-37 c -17,-92 -89.00002,-184 -180.00002,-232 -44,-24 -62,-27 -145,-27 -83,0 -101,3 -145,27 -64,33 -120,89 -153,153 -24,44 -27,62 -27,145 0,83 3,101 27,145 43,83 120,147 208,176 14,5 61,7 105,5 62,-2 91,-8 130,-28 z m -32,-121 c 53,-41 88,-91 94,-137 l 6,-40 h -44 c -42,0 -45,2 -61,40 -17,42 -67,80 -106,80 -57,0 -122,-64 -122,-120 0,-56 65,-120 122,-120 32,0 86,35 100,65 10,22 18,25 61,25 49,0 49,0 42,-27 -9,-36 -46,-85 -91,-120 -29,-21 -50,-28 -99,-31 -82,-5 -140,22 -187,87 -30,42 -33,52 -33,121 0,67 3,80 30,119 45,65 103,93 186,89 54,-3 73,-9 102,-31 z m -48,-112 c 14,-14 25,-35 25,-45 0,-17 -7,-20 -45,-20 -33,0 -45,-4 -45,-15 0,-11 11,-15 40,-15 45,0 51,-13 18,-41 -32,-28 -91,-25 -123,6 -35,36 -35,94 0,130 19,18 36,25 65,25 29,0 46,-7 65,-25 z"
       id="path9922"
       style="fill:#4f6d84;fill-opacity:1" />
    <path
       style="fill:none;stroke:#4f6d84;stroke-width:18.75;stroke-linecap:butt;stroke-linejoin:miter;stroke-miterlimit:4;stroke-dasharray:none;stroke-opacity:1"
       d="m 26.936394,9589.3832 9.120084,-1590.2728 1588.752422,0.675 0.1688,1591.286 z"
       id="path10505" />
  </g>
</svg>
