<?xml version="1.0" encoding="UTF-8" standalone="no"?>
<svg
   xmlns:dc="http://purl.org/dc/elements/1.1/"
   xmlns:cc="http://creativecommons.org/ns#"
   xmlns:rdf="http://www.w3.org/1999/02/22-rdf-syntax-ns#"
   xmlns:svg="http://www.w3.org/2000/svg"
   xmlns="http://www.w3.org/2000/svg"
   xmlns:sodipodi="http://sodipodi.sourceforge.net/DTD/sodipodi-0.dtd"
   xmlns:inkscape="http://www.inkscape.org/namespaces/inkscape"
   version="1.0"
   width="58mm"
   height="57mm"
   viewBox="0 0 164.40942 161.57477"
   preserveAspectRatio="xMidYMid meet"
   id="svg7433"
   sodipodi:docname="Goal_oriented.svg"
   inkscape:version="1.0.2-2 (e86c870879, 2021-01-15)">
  <defs
     id="defs7437" />
  <sodipodi:namedview
     pagecolor="#ffffff"
     bordercolor="#666666"
     borderopacity="1"
     objecttolerance="10"
     gridtolerance="10"
     guidetolerance="10"
     inkscape:pageopacity="0"
     inkscape:pageshadow="2"
     inkscape:window-width="1858"
     inkscape:window-height="1057"
     id="namedview7435"
     showgrid="false"
     units="mm"
     width="73mm"
     inkscape:zoom="1.9625521"
     inkscape:cx="259.85804"
     inkscape:cy="129.44348"
     inkscape:window-x="54"
     inkscape:window-y="-8"
     inkscape:window-maximized="1"
     inkscape:current-layer="g7431" />
  <metadata
     id="metadata7377">
Created by potrace 1.16, written by Peter Selinger 2001-2019
<rdf:RDF>
  <cc:Work
     rdf:about="">
    <dc:format>image/svg+xml</dc:format>
    <dc:type
       rdf:resource="http://purl.org/dc/dcmitype/StillImage" />
    <dc:title></dc:title>
  </cc:Work>
</rdf:RDF>
</metadata>
  <g
     transform="matrix(0.1,0,0,-0.1,0,962)"
     fill="#000000"
     stroke="none"
     id="g7431">
    <path
       d="m 1278.8922,9380.3745 c -31,-34 -36,-74 -14,-106 13,-18 4,-37 -112,-229 -121,-200 -128,-210 -154.99997,-207 -15,2 -39,-4 -53,-13 -24,-15 -27,-15 -92,28 -37,24 -95,61 -129,83 -58,37 -62,41 -62,77 -1,29 -8,46 -30,68 -36,35 -69,37 -104,5 -35,-33 -42,-67 -22,-105 l 16,-32 -94,-157 c -92,-153 -96,-157 -131,-160 -46,-4 -96,-52 -96,-92 0,-37 52,-90 87,-90 35,0 83,51 83,88 0,15 -6,36 -14,47 -13,19 -5,35 83,182 90,152 98,162 126,163 17,0 41,7 53,16 22,15 27,13 110,-42 48,-31 106,-68 129,-83 38,-23 42,-30 43,-64 0,-29 7,-46 29,-68 37,-37 70,-37 109.99997,0 34,32 41,73 17,107 -13,18 -3,37 111,227 122,204 125,207 158,207 24,0 42,9 64,31 41,40 41,78 0,118 -40,40 -75,40 -111,1 z"
       id="path7407"
       style="fill:#4f6d84;fill-opacity:1" />
    <path
       style="fill:none;stroke:#4f6d84;stroke-width:17.25;stroke-linecap:butt;stroke-linejoin:miter;stroke-miterlimit:4;stroke-dasharray:none;stroke-opacity:1"
       d="m 22.929329,9600.4145 -0.955389,-1581.6459 1597.83116,1.4507 0.8923,1579.2398 z"
       id="path8000" />
  </g>
</svg>
