<?xml version="1.0" encoding="UTF-8" standalone="no"?>
<svg
   xmlns:dc="http://purl.org/dc/elements/1.1/"
   xmlns:cc="http://creativecommons.org/ns#"
   xmlns:rdf="http://www.w3.org/1999/02/22-rdf-syntax-ns#"
   xmlns:svg="http://www.w3.org/2000/svg"
   xmlns="http://www.w3.org/2000/svg"
   xmlns:sodipodi="http://sodipodi.sourceforge.net/DTD/sodipodi-0.dtd"
   xmlns:inkscape="http://www.inkscape.org/namespaces/inkscape"
   version="1.0"
   width="58mm"
   height="58mm"
   viewBox="0 0 164.40941 164.40941"
   preserveAspectRatio="xMidYMid meet"
   id="svg6808"
   sodipodi:docname="Motivated.svg"
   inkscape:version="1.0.2-2 (e86c870879, 2021-01-15)">
  <defs
     id="defs6812" />
  <sodipodi:namedview
     pagecolor="#ffffff"
     bordercolor="#666666"
     borderopacity="1"
     objecttolerance="10"
     gridtolerance="10"
     guidetolerance="10"
     inkscape:pageopacity="0"
     inkscape:pageshadow="2"
     inkscape:window-width="1858"
     inkscape:window-height="1057"
     id="namedview6810"
     showgrid="false"
     units="mm"
     width="73mm"
     inkscape:zoom="1.9625521"
     inkscape:cx="17.353171"
     inkscape:cy="124.38637"
     inkscape:window-x="54"
     inkscape:window-y="-8"
     inkscape:window-maximized="1"
     inkscape:current-layer="g6806" />
  <metadata
     id="metadata6752">
Created by potrace 1.16, written by Peter Selinger 2001-2019
<rdf:RDF>
  <cc:Work
     rdf:about="">
    <dc:format>image/svg+xml</dc:format>
    <dc:type
       rdf:resource="http://purl.org/dc/dcmitype/StillImage" />
    <dc:title></dc:title>
  </cc:Work>
</rdf:RDF>
</metadata>
  <g
     transform="matrix(0.1,0,0,-0.1,0,962)"
     fill="#000000"
     stroke="none"
     id="g6806">
    <path
       d="m 764.89223,9366.3215 c -22,-9 -71,-34 -110,-55 -38,-22 -107,-61 -154,-87 -47,-26 -97,-57 -112,-69 -30,-23 -36,-56 -15,-82 12,-15 112,-78 123,-78 4,0 40,-20 81,-45 40,-25 76,-45 78,-45 2,0 28,-14 57,-32 45,-27 63,-32 119,-33 36,0 72,5 80,11 8,7 57,35 108.99997,65 295,164 280,153 280,193 0,17 -11,33 -33,50 -19,15 -37,26 -40,26 -3,0 -39,20 -79,43 -184.99997,111 -282.99997,158 -322.99997,156 -11,-1 -38,-8 -61,-18 z m 126,-24 c 131.99997,-71 318.99997,-176 352.99997,-199 47,-34 36,-51 -75,-114 -57,-32 -141,-80 -187.99997,-106 -114,-65 -147,-73 -202,-51 -24,9 -75,36 -114,60 -39,24 -74,43 -78,43 -3,0 -35,18 -71,40 -36,22 -69,40 -73,40 -4,0 -20,11 -37,24 -25,20 -28,26 -16,40 17,20 204,130 366,215 45,24 99,27 135,8 z"
       id="path6776"
       style="fill:#4f6d84;fill-opacity:1;stroke:#4f6d84;stroke-opacity:1" />
    <path
       d="m 376.89223,8946.3215 c -10,-11 -16,-31 -14,-47 4,-37 11,-42 342,-226 99,-55 149,-53 259,6 279.99997,151 330.99997,185 334.99997,219 4,31 -35,73 -52,56 -6,-5 -3,-14 8,-22 33,-24 14,-49 -79,-104 -49,-30 -99,-58 -111,-63 -11,-4 -51,-26 -86.99997,-49 -77,-47 -136,-65 -180,-55 -30,6 -105,46 -263,140 -39,23 -80,45 -91,48 -11,3 -30,17 -43,31 -22,23 -22,26 -7,43 18,20 22,42 9,42 -5,0 -17,-9 -26,-19 z"
       id="path6778"
       style="fill:#4f6d84;fill-opacity:1;stroke:#4f6d84;stroke-opacity:1" />
    <path
       d="m 370.89223,8736.3215 c -27,-52 -10,-72 135,-152 50,-28 125,-70 167,-95 43,-24 84,-44 92,-44 8,0 18,-4 21,-10 8,-12 82,-13 89,-1 3,5 16,11 29,15 23,5 106.99997,51 244.99997,133 40,24 76,43 79,43 3,0 21,11 40,26 22,17 33,33 33,50 0,29 -21,54 -44,54 -20,0 -21,-19 -1,-26 24,-10 17,-41 -12,-62 -36,-24 -223,-130 -345.99997,-195 -55,-29 -105,-19 -212,42 -49,28 -125,70 -168,93 -43,23 -92,54 -110,69 -31,26 -31,28 -14,46 21,24 22,33 2,33 -8,0 -19,-9 -25,-19 z"
       id="path6780"
       style="fill:#4f6d84;fill-opacity:1;stroke:#4f6d84;stroke-opacity:1" />
    <path
       style="fill:none;stroke:#4f6d84;stroke-width:18.75;stroke-linecap:butt;stroke-linejoin:miter;stroke-miterlimit:4;stroke-dasharray:none;stroke-opacity:1"
       d="m 1620.3392,9596.1153 0.4777,-1600.7538 -1597.887571,-0.9554 -1.433083,1601.2314 z"
       id="path7375" />
  </g>
</svg>
