<?xml version="1.0" encoding="UTF-8" standalone="no"?>
<svg
   xmlns:dc="http://purl.org/dc/elements/1.1/"
   xmlns:cc="http://creativecommons.org/ns#"
   xmlns:rdf="http://www.w3.org/1999/02/22-rdf-syntax-ns#"
   xmlns:svg="http://www.w3.org/2000/svg"
   xmlns="http://www.w3.org/2000/svg"
   xmlns:sodipodi="http://sodipodi.sourceforge.net/DTD/sodipodi-0.dtd"
   xmlns:inkscape="http://www.inkscape.org/namespaces/inkscape"
   version="1.0"
   width="58mm"
   height="58mm"
   viewBox="0 0 164.40941 164.40941"
   preserveAspectRatio="xMidYMid meet"
   id="svg8683"
   sodipodi:docname="Positivity.svg"
   inkscape:version="1.0.2-2 (e86c870879, 2021-01-15)">
  <defs
     id="defs8687" />
  <sodipodi:namedview
     pagecolor="#ffffff"
     bordercolor="#666666"
     borderopacity="1"
     objecttolerance="10"
     gridtolerance="10"
     guidetolerance="10"
     inkscape:pageopacity="0"
     inkscape:pageshadow="2"
     inkscape:window-width="1858"
     inkscape:window-height="1057"
     id="namedview8685"
     showgrid="false"
     units="mm"
     height="104mm"
     inkscape:zoom="0.98127604"
     inkscape:cx="140.1179"
     inkscape:cy="250.48572"
     inkscape:window-x="54"
     inkscape:window-y="-8"
     inkscape:window-maximized="1"
     inkscape:current-layer="g8681" />
  <metadata
     id="metadata8627">
Created by potrace 1.16, written by Peter Selinger 2001-2019
<rdf:RDF>
  <cc:Work
     rdf:about="">
    <dc:format>image/svg+xml</dc:format>
    <dc:type
       rdf:resource="http://purl.org/dc/dcmitype/StillImage" />
    <dc:title></dc:title>
  </cc:Work>
</rdf:RDF>
</metadata>
  <g
     transform="matrix(0.1,0,0,-0.1,0,962)"
     fill="#000000"
     stroke="none"
     id="g8681">
    <path
       d="m 754.71378,9383.2649 c -8,-5 -33,-12 -54,-15 -82,-15 -199,-115 -244,-208 -13,-25 -28,-74 -34,-108 -10,-53 -16,-63 -42,-77 -90,-45 -165,-165 -166,-262 0,-87 76,-206 157,-245 21,-11 46,-23 55,-27 25,-12 814.00002,-11 836.00002,1 9,5 35,17 56,26 72,32 156,169 156,254 0,108 -95,236 -201,269 -29,9 -38,19 -48,50 -6,21 -11,45 -11,52 0,24 -55,132 -86,168 -40,48 -118,94 -191.00002,114 -67,18 -158,22 -183,8 z m 246.00002,-55 c 120,-64 191,-177 202,-322 7,-82 24,-117 30,-61 4,33 24,35 72,6 88,-53 131,-117 138,-206 6,-79 -15,-140 -72,-201 -76,-83 -66,-82 -531.00002,-82 -398,0 -412,1 -450,21 -143,75 -187,238 -102,372 48,75 102,109 187,116 76,7 82,25 10,29 -27,2 -50,6 -50,9 0,3 9,36 20,72 33,113 92,186 191,239 72,39 84,41 204,38 86,-3 107,-7 151.00002,-30 z"
       id="path8665"
       style="fill:#4f6d84;fill-opacity:1" />
    <path
       style="fill:none;stroke:#4f6d84;stroke-width:18.75;stroke-linecap:butt;stroke-linejoin:miter;stroke-miterlimit:4;stroke-dasharray:none;stroke-opacity:1"
       d="m 25.923051,9593.3926 1.351124,-1601.757 1597.841925,0.8598 -1.4331,1602.1868 z"
       id="path9250" />
  </g>
</svg>
