<?xml version="1.0" encoding="UTF-8" standalone="no"?>
<svg
   xmlns:dc="http://purl.org/dc/elements/1.1/"
   xmlns:cc="http://creativecommons.org/ns#"
   xmlns:rdf="http://www.w3.org/1999/02/22-rdf-syntax-ns#"
   xmlns:svg="http://www.w3.org/2000/svg"
   xmlns="http://www.w3.org/2000/svg"
   xmlns:sodipodi="http://sodipodi.sourceforge.net/DTD/sodipodi-0.dtd"
   xmlns:inkscape="http://www.inkscape.org/namespaces/inkscape"
   version="1.0"
   width="59mm"
   height="59mm"
   viewBox="0 0 167.24406 167.24406"
   preserveAspectRatio="xMidYMid meet"
   id="svg3583"
   sodipodi:docname="Courageous.svg"
   inkscape:version="1.0.2-2 (e86c870879, 2021-01-15)">
  <defs
     id="defs3587" />
  <sodipodi:namedview
     pagecolor="#ffffff"
     bordercolor="#666666"
     borderopacity="1"
     objecttolerance="10"
     gridtolerance="10"
     guidetolerance="10"
     inkscape:pageopacity="0"
     inkscape:pageshadow="2"
     inkscape:window-width="1858"
     inkscape:window-height="1057"
     id="namedview3585"
     showgrid="false"
     units="mm"
     width="73mm"
     inkscape:zoom="0.69099379"
     inkscape:cx="45.500229"
     inkscape:cy="519.95902"
     inkscape:window-x="54"
     inkscape:window-y="-8"
     inkscape:window-maximized="1"
     inkscape:current-layer="g3581" />
  <metadata
     id="metadata3517">
Created by potrace 1.16, written by Peter Selinger 2001-2019
<rdf:RDF>
  <cc:Work
     rdf:about="">
    <dc:format>image/svg+xml</dc:format>
    <dc:type
       rdf:resource="http://purl.org/dc/dcmitype/StillImage" />
    <dc:title></dc:title>
  </cc:Work>
</rdf:RDF>
</metadata>
  <g
     transform="matrix(0.1,0,0,-0.1,0,966)"
     fill="#000000"
     stroke="none"
     id="g3581">
    <path
       d="m 663.41573,9403.4831 c -41,-9 -88,-22 -105,-29 -46,-19 -114,-90 -121,-128 -3,-18 -10,-36 -15,-39 -11,-7 -12,-99 0,-122 4,-9 19,-39 32,-67 15,-31 60,-86 119,-145 106,-107 126,-124 205,-176 l 55,-37 55,37 c 79,52 99,69 204.99997,176 59,59 104,114 119,145 13,28 28,58 32,67 12,23 11,115 0,122 -5,3 -12,21 -15,39 -8,41 -76,110 -131,131 -120.99997,46 -300.99997,57 -434.99997,26 z m 220,-20 c 10,-5 28,-26 41,-47 22,-35 24,-49 24,-178 0,-91 -5,-156 -14,-185 -37,-120 -56,-177 -68,-200 -7,-14 -13,-31 -13,-37 0,-7 -9,-13 -20,-13 -11,0 -20,6 -20,13 0,6 -6,23 -13,37 -12,23 -31,80 -68,200 -9,29 -14,94 -14,185 0,135 1,141 27,181 15,23 33,44 40,47 22,9 78,7 98,-3 z m -155,-17 c -19,-44 -45,-163 -45,-208 0,-80 46,-296 70,-330 12,-16 21,-65 13,-65 -13,0 -96,109 -134,175 -62,107 -64,112 -64,216 0,92 2,100 30,141 43,60 150,119 130,71 z m 270,-6 c 20.99997,-12 52.99997,-42 69.99997,-65 29,-42 30,-48 30,-145 0,-97 -2,-105 -34,-162 -69.99997,-125 -159.99997,-242 -168.99997,-217 -2,6 4,26 12,44 39,84 76,253 76,344 0,44 -26,163 -45,207 -10,24 11,22 60,-6 z m -407,-29 c -30,-39 -58,-130 -58,-185 0,-72 38,-169 108,-270 23,-35 37,-63 31,-63 -19,0 -144,132 -184,195 -33,51 -39,69 -42,130 -4,60 -1,77 19,115 24,45 104,110 135,110 12,0 9,-8 -9,-32 z m 537.99997,0 c 71,-48 97,-103 91,-193 -3,-61 -9,-79 -42,-130 -40,-63 -165,-195 -183.99997,-195 -6,0 7.99997,28 30.99997,63 70,101 108,198 108,270 0,55 -28,146 -58,185 -18,24 -21,32 -9,32 8,0 36,-15 63,-32 z"
       id="path3555"
       style="fill:#4f6d84;fill-opacity:1" />
    <path
       d="m 750.41573,8607.4831 c -12,-13 -7,-108 7,-126 10,-14 28,-18 78,-18 57,0 66,3 77,23 7,13 11,45 9,73 l -3,49 -80,3 c -45,1 -84,0 -88,-4 z"
       id="path3557"
       style="fill:#4f6d84;fill-opacity:1" />
    <path
       style="fill:none;stroke:#4f6d84;stroke-width:15.75;stroke-linecap:butt;stroke-linejoin:miter;stroke-miterlimit:4;stroke-dasharray:none;stroke-opacity:1"
       d="m 1633.0771,8033.8129 1.9188,1580.5475 -1592.936912,0.8671 1.356742,-1581.9607 z"
       id="path4150" />
  </g>
</svg>
