<?xml version="1.0" encoding="UTF-8" standalone="no"?>
<svg
   xmlns:dc="http://purl.org/dc/elements/1.1/"
   xmlns:cc="http://creativecommons.org/ns#"
   xmlns:rdf="http://www.w3.org/1999/02/22-rdf-syntax-ns#"
   xmlns:svg="http://www.w3.org/2000/svg"
   xmlns="http://www.w3.org/2000/svg"
   xmlns:sodipodi="http://sodipodi.sourceforge.net/DTD/sodipodi-0.dtd"
   xmlns:inkscape="http://www.inkscape.org/namespaces/inkscape"
   version="1.0"
   width="58mm"
   height="58mm"
   viewBox="0 0 164.40941 164.40942"
   preserveAspectRatio="xMidYMid meet"
   id="svg4218"
   sodipodi:docname="Disciplined.svg"
   inkscape:version="1.0.2-2 (e86c870879, 2021-01-15)">
  <defs
     id="defs4222" />
  <sodipodi:namedview
     pagecolor="#ffffff"
     bordercolor="#666666"
     borderopacity="1"
     objecttolerance="10"
     gridtolerance="10"
     guidetolerance="10"
     inkscape:pageopacity="0"
     inkscape:pageshadow="2"
     inkscape:window-width="1858"
     inkscape:window-height="1057"
     id="namedview4220"
     showgrid="false"
     units="mm"
     height="104mm"
     inkscape:zoom="1.3819876"
     inkscape:cx="-85.659956"
     inkscape:cy="210.27651"
     inkscape:window-x="54"
     inkscape:window-y="-8"
     inkscape:window-maximized="1"
     inkscape:current-layer="g4216" />
  <metadata
     id="metadata4152">
Created by potrace 1.16, written by Peter Selinger 2001-2019
<rdf:RDF>
  <cc:Work
     rdf:about="">
    <dc:format>image/svg+xml</dc:format>
    <dc:type
       rdf:resource="http://purl.org/dc/dcmitype/StillImage" />
    <dc:title></dc:title>
  </cc:Work>
</rdf:RDF>
</metadata>
  <g
     transform="matrix(0.1,0,0,-0.1,0,966)"
     fill="#000000"
     stroke="none"
     id="g4216">
    <path
       d="m 491.70786,9424.8651 c 0,-13 42,-15 315,-15 273.00004,0 315.00004,2 315.00004,15 0,13 -42,15 -315.00004,15 -273,0 -315,-2 -315,-15 z"
       id="path4194"
       style="fill:#4f6d84;fill-opacity:1" />
    <path
       d="m 528.70786,9372.8651 c -12,-11 -7,-125 7,-178 19,-73 41,-110 102,-173 30,-31 54,-60 54,-64 0,-4 -21,-27 -46,-50 -89,-82 -127,-171 -122,-289 l 3,-74 h 280 280.00004 l 3,70 c 5,118 -41,223 -133.00004,304 -19,17 -35,35 -35,40 0,6 21,30 46,53 89.00004,82 127.00004,171 122.00004,289 l -3,74 -276.00004,3 c -151,1 -278,-1 -282,-5 z m 533.00004,-100 c 0,-118 -44,-196 -160.00004,-286 l -35,-27 40,-32 c 116.00004,-94 155.00004,-165 155.00004,-282 v -76 h -38 c -34.00004,0 -45.00004,8 -119.00004,83 -45,45 -83,90 -85,100 -1,10 -7,18 -13,18 -5,0 -12,-8 -13,-18 -2,-10 -40,-55 -85,-100 -74,-75 -85,-83 -119,-83 h -38 v 78 c 0,117 44,195 160,285 l 35,27 -40,32 c -113,93 -146,152 -153,271 l -4,87 h 256 256.00004 z m -183.00004,-625 c 35,-34 63,-66 63,-70 0,-4 -61,-8 -135,-8 -74,0 -135,3 -135,7 0,11 123,133 134,133 6,0 39,-28 73,-62 z"
       id="path4196"
       style="fill:#4f6d84;fill-opacity:1" />
    <path
       d="m 658.70786,9163.8651 c -15,-15 31,-70 111,-132 30,-23 35,-24 59,-11 39,20 143,119 143,135 0,11 -29,14 -153,14 -85,0 -157,-3 -160,-6 z"
       id="path4198"
       style="fill:#4f6d84;fill-opacity:1" />
    <path
       d="m 491.70786,8494.8651 c 0,-13 42,-15 315,-15 273.00004,0 315.00004,2 315.00004,15 0,13 -42,15 -315.00004,15 -273,0 -315,-2 -315,-15 z"
       id="path4200"
       style="fill:#4f6d84;fill-opacity:1" />
    <path
       style="fill:none;stroke:#4f6d84;stroke-width:15.75;stroke-linecap:butt;stroke-linejoin:miter;stroke-miterlimit:4;stroke-dasharray:none;stroke-opacity:1"
       d="M 1613.1657,9639.6488 V 8037.3371 l -1592.814577,2.7135 2.035113,1600.2766 z"
       id="path4785" />
  </g>
</svg>
