<?xml version="1.0" encoding="UTF-8" standalone="no"?>
<svg
   xmlns:dc="http://purl.org/dc/elements/1.1/"
   xmlns:cc="http://creativecommons.org/ns#"
   xmlns:rdf="http://www.w3.org/1999/02/22-rdf-syntax-ns#"
   xmlns:svg="http://www.w3.org/2000/svg"
   xmlns="http://www.w3.org/2000/svg"
   xmlns:sodipodi="http://sodipodi.sourceforge.net/DTD/sodipodi-0.dtd"
   xmlns:inkscape="http://www.inkscape.org/namespaces/inkscape"
   version="1.0"
   width="58mm"
   height="59mm"
   viewBox="0 0 164.40941 167.24406"
   preserveAspectRatio="xMidYMid meet"
   id="svg4853"
   sodipodi:docname="Networker.svg"
   inkscape:version="1.0.2-2 (e86c870879, 2021-01-15)">
  <defs
     id="defs4857" />
  <sodipodi:namedview
     pagecolor="#ffffff"
     bordercolor="#666666"
     borderopacity="1"
     objecttolerance="10"
     gridtolerance="10"
     guidetolerance="10"
     inkscape:pageopacity="0"
     inkscape:pageshadow="2"
     inkscape:window-width="1858"
     inkscape:window-height="1057"
     id="namedview4855"
     showgrid="false"
     units="mm"
     width="73mm"
     inkscape:zoom="0.17274845"
     inkscape:cx="186.87804"
     inkscape:cy="1118.7163"
     inkscape:window-x="54"
     inkscape:window-y="-8"
     inkscape:window-maximized="1"
     inkscape:current-layer="g4851" />
  <metadata
     id="metadata4787">
Created by potrace 1.16, written by Peter Selinger 2001-2019
<rdf:RDF>
  <cc:Work
     rdf:about="">
    <dc:format>image/svg+xml</dc:format>
    <dc:type
       rdf:resource="http://purl.org/dc/dcmitype/StillImage" />
    <dc:title></dc:title>
  </cc:Work>
</rdf:RDF>
</metadata>
  <g
     transform="matrix(0.1,0,0,-0.1,-1.0853932,958.40225)"
     fill="#000000"
     stroke="none"
     id="g4851">
    <path
       d="m 594.37445,9406.2409 c -3,-4 -19,-11 -36,-14 -48,-10 -134,-101 -159,-170 -11,-32 -21,-68 -21,-81 0,-13 -7,-29 -15,-36 -22,-18 -18,-70 10,-115 13,-22 33,-59 44,-81 11,-23 36,-62 56,-88 28,-37 33,-50 26,-68 -17,-44 -66,-78 -141,-99 -101,-29 -150,-52 -184,-85 -40,-40 -70,-114 -47,-114 5,0 12,12 15,26 12,47 85,107 161,132 39,12 76,22 83,22 44,0 136,81 145,129 4,19 -3,35 -30,65 -19,21 -44,57 -54,80 -10,22 -29,56 -43,75 -26,35 -36,104 -17,116 5,3 15,31 22,63 15,72 67,154 119,187 45,28 118,41 173,31 53,-10 127,-63 127,-91 0,-13 -4,-26 -10,-30 -18,-11 -32,-81 -40,-200 -8,-126 -20,-164 -65,-207 -14,-13 -25,-25 -25,-28 0,-3 16,-14 35,-24 19,-10 38,-28 41,-40 4,-12 15,-33 25,-48 11,-14 19,-30 19,-35 0,-5 -39,-21 -87,-36 -98,-31 -140,-56 -171,-101 -25,-37 -39,-86 -24,-86 5,0 13,12 16,26 4,14 26,44 49,67 33,33 59,47 117,65 41,13 90,28 108,33 22,7 37,7 45,1 7,-6 30,-13 52,-17 106.99995,-18 195.99995,-69 228.99995,-130 11,-22 22,-42 24,-44 1,-2 5,-2 8,2 12,12 -17,74 -49,104 -36,35 -104,68 -156.99995,78 -41,7 -90,25 -90,33 0,3 11,19 23,36 13,17 27,43 31,58 l 6,28 -60,-7 c -33,-3 -60,-2 -60,2 0,4 15,31 34,59 18,28 37,62 41,76 4,14 18,44 31,68 24,43 32,96 15,106 -5,3 -12,27 -16,53 -4,27 -17,69 -29,95 -26,55 -22,68 37,105 59,37 149.99995,43 208.99995,14 51,-24 87,-59 118,-116 18,-31 25,-64 30,-150 10,-136 25,-204 55,-249 l 23,-34 -26,-11 c -14,-7 -55,-14 -91,-17 -36,-3 -71,-7 -78,-9 -21,-7 -1,-48 47,-96 36,-36 56,-48 91,-54 109,-17 200,-68 233,-130 11,-22 22,-42 24,-44 1,-2 5,-2 8,2 3,3 1,21 -5,40 -21,63 -112,127 -203,142 -62,11 -122,39 -146,70 -32,41 -28,55 16,55 51,1 118,17 148,37 l 25,16 -24,26 c -47,50 -59,89 -67,215 -8,124 -16,160 -43,212 -24,45 -97,109 -147,127 -51,19 -125,22 -134.99995,7 -3,-5 -15,-10 -25,-10 -10,0 -39,-16 -64,-35 -26,-19 -49,-35 -52,-35 -3,0 -22,13 -42,29 -20,17 -57,37 -82,45 -49,17 -126,21 -134,7 z m 294,-211 c 6,-19 15,-62 21,-95 12,-60 11,-62 -26,-140 -41,-86 -89,-155 -108,-155 -7,0 -19,4 -27,10 -12,7 -11,15 9,50 29,53 51,155 51,245 0,49 7,84 21,115 19,43 21,44 35,25 8,-10 19,-35 24,-55 z"
       id="path4837"
       style="fill:#4f6d84;fill-opacity:1" />
    <path
       style="fill:none;stroke:#4f6d84;stroke-width:15.75;stroke-linecap:butt;stroke-linejoin:miter;stroke-miterlimit:4;stroke-dasharray:none;stroke-opacity:1"
       d="m 1627.6173,7944.9539 0.18,1600.8117 -1587.387592,-0.339 V 7943.9948 Z"
       id="path5420" />
  </g>
</svg>
