<?xml version="1.0" encoding="UTF-8" standalone="no"?>
<svg
   xmlns:dc="http://purl.org/dc/elements/1.1/"
   xmlns:cc="http://creativecommons.org/ns#"
   xmlns:rdf="http://www.w3.org/1999/02/22-rdf-syntax-ns#"
   xmlns:svg="http://www.w3.org/2000/svg"
   xmlns="http://www.w3.org/2000/svg"
   xmlns:sodipodi="http://sodipodi.sourceforge.net/DTD/sodipodi-0.dtd"
   xmlns:inkscape="http://www.inkscape.org/namespaces/inkscape"
   version="1.0"
   width="58mm"
   height="58mm"
   viewBox="0 0 164.40942 164.40942"
   preserveAspectRatio="xMidYMid meet"
   id="svg5488"
   sodipodi:docname="Self_starter.svg"
   inkscape:version="1.0.2-2 (e86c870879, 2021-01-15)">
  <defs
     id="defs5492" />
  <sodipodi:namedview
     pagecolor="#ffffff"
     bordercolor="#666666"
     borderopacity="1"
     objecttolerance="10"
     gridtolerance="10"
     guidetolerance="10"
     inkscape:pageopacity="0"
     inkscape:pageshadow="2"
     inkscape:window-width="1858"
     inkscape:window-height="1057"
     id="namedview5490"
     showgrid="false"
     units="mm"
     width="73mm"
     inkscape:zoom="1.3819876"
     inkscape:cx="198.66661"
     inkscape:cy="212.33645"
     inkscape:window-x="54"
     inkscape:window-y="-8"
     inkscape:window-maximized="1"
     inkscape:current-layer="g5486" />
  <metadata
     id="metadata5422">
Created by potrace 1.16, written by Peter Selinger 2001-2019
<rdf:RDF>
  <cc:Work
     rdf:about="">
    <dc:format>image/svg+xml</dc:format>
    <dc:type
       rdf:resource="http://purl.org/dc/dcmitype/StillImage" />
    <dc:title></dc:title>
  </cc:Work>
</rdf:RDF>
</metadata>
  <g
     transform="matrix(0.1,0,0,-0.1,0,966)"
     fill="#000000"
     stroke="none"
     id="g5486">
    <path
       d="m 379.2809,9389.3482 c -18,-19 -33,-36 -33,-38 0,-2 23,-26 52,-53 44,-42 55,-48 70,-38 15,9 34,-5 136,-107 65,-65 121,-114 125,-110 4,4 -45,60 -110,125 -102,102 -116,121 -107,136 10,15 4,26 -38,70 -27,29 -52,51 -56,51 -4,-1 -22,-17 -39,-36 z"
       id="path5448"
       style="fill:#4f6d84;fill-opacity:1" />
    <path
       d="m 1051.2809,9413.3482 c -80,-45 -109,-93 -110,-180 l -1,-68 -167,-167 -167,-167 -70,-1 c -62,0 -74,-3 -107,-30 -45,-37 -81,-97 -82,-140 -1,-29 18,-84 29,-84 3,0 30,25 60,55 30,30 59,55 65,55 13,0 65,-52 65,-65 0,-5 -26,-35 -57,-67 -55,-56 -56,-58 -38,-73 24,-18 94,-19 127,-2 81,42 112,92 113,180 l 1,68 167,167 167,167 70,1 c 62,0 74,3 107,30 45,37 81,97 82,140 1,29 -18,84 -29,84 -3,0 -30,-25 -60,-55 -30,-30 -59,-55 -65,-55 -14,0 -65,52 -65,66 0,5 25,34 55,64 30,30 55,57 55,61 0,25 -108,37 -145,16 z m 105,-24 c 0,-3 -22,-30 -50,-59 -27,-29 -50,-58 -50,-65 0,-14 74,-89 89,-89 6,0 37,24 68,52 55,50 58,51 61,29 11,-73 -39,-146 -116,-171 -35,-11 -50,-11 -75,-2 l -32,12 -187,-188 -188,-187 12,-32 c 15,-41 -4,-105 -48,-152 -26,-29 -39,-35 -87,-39 -32,-2 -57,-1 -57,3 0,5 23,32 50,61 28,29 50,58 50,65 0,14 -74,89 -89,89 -6,0 -37,-24 -68,-52 -55,-50 -58,-51 -61,-29 -11,73 39,146 116,171 35,11 50,11 75,2 l 32,-12 187,188 188,187 -12,32 c -9,25 -9,40 2,74 16,49 53,97 84,109 25,10 106,13 106,3 z"
       id="path5450"
       style="fill:#4f6d84;fill-opacity:1" />
    <path
       d="m 966.2809,8888.3482 c 0,-4 66,-72 146,-152 80,-80 149,-152 154,-161 7,-12 0,-25 -25,-49 l -35,-34 -160,159 c -88,87 -163,155 -167,151 -11,-10 310,-326 331,-326 23,0 86,63 86,86 0,17 -306,334 -322,334 -4,0 -8,-3 -8,-8 z"
       id="path5452"
       style="fill:#4f6d84;fill-opacity:1" />
    <path
       style="fill:none;stroke:#4f6d84;stroke-width:15.75;stroke-linecap:butt;stroke-linejoin:miter;stroke-miterlimit:4;stroke-dasharray:none;stroke-opacity:1"
       d="m 1604.5033,9635.2896 0.7193,-1589.421 -1584.871777,-0.39 1.356742,1592.814 z"
       id="path6055" />
  </g>
</svg>
