<?xml version="1.0" encoding="UTF-8" standalone="no"?>
<svg
   xmlns:dc="http://purl.org/dc/elements/1.1/"
   xmlns:cc="http://creativecommons.org/ns#"
   xmlns:rdf="http://www.w3.org/1999/02/22-rdf-syntax-ns#"
   xmlns:svg="http://www.w3.org/2000/svg"
   xmlns="http://www.w3.org/2000/svg"
   xmlns:sodipodi="http://sodipodi.sourceforge.net/DTD/sodipodi-0.dtd"
   xmlns:inkscape="http://www.inkscape.org/namespaces/inkscape"
   version="1.0"
   width="60mm"
   height="51mm"
   viewBox="0 0 170.07872 144.56688"
   preserveAspectRatio="xMidYMid meet"
   id="svg232"
   sodipodi:docname="Critical_thinking.svg"
   inkscape:version="1.0.2-2 (e86c870879, 2021-01-15)">
  <defs
     id="defs236" />
  <sodipodi:namedview
     pagecolor="#ffffff"
     bordercolor="#666666"
     borderopacity="1"
     objecttolerance="10"
     gridtolerance="10"
     guidetolerance="10"
     inkscape:pageopacity="0"
     inkscape:pageshadow="2"
     inkscape:window-width="1858"
     inkscape:window-height="1057"
     id="namedview234"
     showgrid="false"
     inkscape:zoom="2.5793832"
     inkscape:cx="209.46253"
     inkscape:cy="100.59274"
     inkscape:window-x="54"
     inkscape:window-y="-8"
     inkscape:window-maximized="1"
     inkscape:current-layer="g230"
     units="mm"
     height="104mm"
     fit-margin-top="0"
     fit-margin-left="0"
     fit-margin-right="0"
     fit-margin-bottom="0" />
  <metadata
     id="metadata166">
Created by potrace 1.16, written by Peter Selinger 2001-2019
<rdf:RDF>
  <cc:Work
     rdf:about="">
    <dc:format>image/svg+xml</dc:format>
    <dc:type
       rdf:resource="http://purl.org/dc/dcmitype/StillImage" />
    <dc:title></dc:title>
  </cc:Work>
</rdf:RDF>
</metadata>
  <g
     transform="matrix(0.1,0,0,-0.1,-70.372675,893.058)"
     fill="#000000"
     stroke="none"
     id="g230">
    <path
       d="m 1894.1038,8661.2069 c -31,-47 -44,-49 -76,-15 -47,50 -97,24 -86,-46 8,-52 -5,-69 -55,-69 -33,0 -41,-4 -49,-26 -14,-37 -14,-39 30,-68 47,-31 49,-44 15,-76 -51,-48 -24,-97 49,-87 52,7 66,-4 66,-55 0,-32 4,-40 26,-48 37,-14 39,-14 68,30 31,47 44,49 76,15 47,-50 97,-24 86,46 -8,51 5,69 52,69 36,0 61,21 62,51 0,9 -18,28 -40,43 -47,31 -49,44 -15,76 51,48 24,97 -49,87 -51,-7 -66,4 -66,51 0,36 -21,61 -51,62 -9,0 -28,-18 -43,-40 z m 72,-37 c 4,-52 36,-78 77,-63 58,22 78,-2 40,-49 -36,-42 -33,-75 11,-101 47,-30 42,-54 -13,-58 -52,-4 -78,-36 -63,-77 22,-58 -2,-78 -49,-40 -42,36 -75,33 -101,-11 -30,-47 -54,-42 -58,13 -4,52 -36,78 -77,63 -58,-22 -78,2 -40,49 36,42 33,75 -11,101 -47,30 -42,54 13,58 52,4 78,36 63,77 -22,58 2,78 49,40 42,-36 75,-33 101,11 30,47 54,42 58,-13 z"
       id="path190"
       style="fill:#4f6d84;fill-opacity:1" />
    <path
       d="m 1847.1038,8506.2069 c -14,-8 -32,-28 -39,-45 -17,-42 5,-91 49,-110 67,-28 139,43 111,110 -12,30 -55,60 -82,60 -7,-1 -25,-7 -39,-15 z"
       id="path192"
       style="fill:none;fill-opacity:1;stroke:#4f6d84;stroke-opacity:1;stroke-width:14.49749673;stroke-miterlimit:4;stroke-dasharray:none" />
    <path
       d="m 1240.1038,8508.2069 c -6,-7 -15,-33 -21,-57 -10,-44 -32,-70 -58,-70 -7,0 -31,11 -53,25 -50,32 -60,31 -93.0001,-3 -32.99995,-35 -32.99995,-42 -2,-92 14,-22 25,-46 25,-53 0,-26 -26,-48 -69.99995,-58 -59,-13 -70,-24 -70,-69 0,-45 11,-56 70,-69 43.99995,-10 69.99995,-32 69.99995,-58 0,-7 -11,-31 -25,-53 -30.99995,-50 -30.99995,-57 2,-92 33.0001,-34 43.0001,-35 93.0001,-3 22,14 46,25 53,25 26,0 48,-26 58,-70 13,-59 24,-70 69,-70 45,0 56,11 69,70 10,44 32,70 58,70 7,0 31,-11 53,-25 50,-32 60,-31 93,3 33,35 33,42 2,92 -14,22 -25,46 -25,53 0,26 26,48 70,58 59,13 70,24 70,69 0,45 -11,56 -70,69 -44,10 -70,32 -70,58 0,7 11,31 25,53 31,50 31,57 -2,92 -33,34 -43,35 -93,3 -22,-14 -46,-25 -53,-25 -26,0 -48,26 -58,70 -13,59 -24,70 -69,70 -21,0 -42,-6 -48,-13 z m 97,-73 c 20,-76 68,-94 140,-52 40,23 67,20 78,-8 4,-10 -3,-34 -15,-55 -42,-72 -24,-120 52,-140 49,-14 51,-16 51,-49 0,-33 -2,-35 -51,-49 -76,-20 -94,-68 -52,-140 37,-65 2,-100 -63,-63 -72,42 -120,24 -140,-52 -14,-49 -16,-51 -49,-51 -33,0 -35,2 -49,51 -20,76 -68,94 -140,52 -65.0001,-37 -100.00005,-2 -63.0001,63 42.0001,72 24.0001,120 -51.99995,140 -49,14 -51,16 -51,49 0,33 2,35 51,49 76.00005,20 94.00005,68 51.99995,140 -36.99995,65 -2,100 63.0001,63 21,-12 50,-22 64,-22 28,0 75,40 75,64 0,8 4,27 10,41 8,22 15,26 42,23 30,-3 34,-7 47,-54 z"
       id="path194"
       style="fill:#4f6d84;fill-opacity:1;stroke:#4f8b64;stroke-opacity:0" />
    <path
       d="m 1223.1038,8282.2069 c -36,-15 -85,-74 -91,-108 -9,-48 1,-107 22,-135 37,-50 65,-63 134,-63 49,0 71,5 91,19 51,40 64,67 64,136 0,69 -13,97 -64,135 -28,21 -122,31 -156,16 z m 133,-31 c 42,-26 72,-76 72,-120 0,-71 -69,-140 -140,-140 -71,0 -140,69 -140,140 0,71 69,140 140,140 19,0 50,-9 68,-20 z"
       id="path196"
       style="fill:#4f6d84;fill-opacity:1" />
    <path
       d="m 8332,409 c -39,-12 -72,-60 -72,-106 0,-30 3,-33 30,-33 26,0 30,4 30,28 0,50 25,62 128,62 h 92 v 30 30 l -87,-1 c -49,0 -103,-5 -121,-10 z"
       id="path218" />
    <path
       d="m 8412,322 -53,-3 3,-52 c 3,-51 4,-52 36,-55 46,-5 43,-32 -3,-32 -29,0 -35,-4 -35,-20 0,-19 5,-21 58,-18 l 57,3 v 50 c 0,49 -1,50 -32,53 -43,4 -45,32 -3,32 19,0 33,6 37,16 9,23 -6,29 -65,26 z"
       id="path220" />
    <path
       d="m 8904,321 c -2,-2 -4,-44 -4,-93 0,-87 0,-88 25,-88 20,0 25,5 25,24 0,38 20,42 33,7 7,-21 18,-31 32,-31 18,0 20,7 23,89 l 3,89 -66,4 c -37,1 -69,1 -71,-1 z"
       id="path222" />
    <path
       d="m 8530,230 c 0,-89 0,-90 25,-90 20,0 25,5 25,24 0,22 5,25 43,28 l 42,3 v 60 60 l -67,3 -68,3 z"
       id="path224" />
    <path
       d="m 8717,313 c -4,-3 -7,-44 -7,-90 0,-82 0,-83 25,-83 18,0 25,5 25,20 0,13 7,20 20,20 13,0 20,-7 20,-20 0,-15 7,-20 25,-20 25,0 25,1 25,90 v 90 h -63 c -35,0 -67,-3 -70,-7 z"
       id="path226" />
    <path
       d="m 9250,230 c 0,-89 0,-90 25,-90 18,0 25,5 25,20 0,13 7,20 20,20 13,0 20,-7 20,-20 0,-15 7,-20 25,-20 h 26 l -3,88 -3,87 -67,3 -68,3 z"
       id="path228" />
    <path
       style="fill:none;fill-opacity:1;stroke:#4f6d84;stroke-width:17.4674;stroke-linecap:butt;stroke-linejoin:miter;stroke-miterlimit:4;stroke-dasharray:none;stroke-opacity:1"
       d="m 757.46045,8891.8463 v -1387.467 l 1581.28665,17.3433 v 1370.1237 z"
       id="path238" />
  </g>
</svg>
