<?xml version="1.0" encoding="UTF-8" standalone="no"?>
<svg
   xmlns:dc="http://purl.org/dc/elements/1.1/"
   xmlns:cc="http://creativecommons.org/ns#"
   xmlns:rdf="http://www.w3.org/1999/02/22-rdf-syntax-ns#"
   xmlns:svg="http://www.w3.org/2000/svg"
   xmlns="http://www.w3.org/2000/svg"
   xmlns:sodipodi="http://sodipodi.sourceforge.net/DTD/sodipodi-0.dtd"
   xmlns:inkscape="http://www.inkscape.org/namespaces/inkscape"
   version="1.0"
   width="59mm"
   height="59mm"
   viewBox="0 0 167.24406 167.24406"
   preserveAspectRatio="xMidYMid meet"
   id="svg1608"
   sodipodi:docname="Implementer.svg"
   inkscape:version="1.0.2-2 (e86c870879, 2021-01-15)">
  <defs
     id="defs1612" />
  <sodipodi:namedview
     pagecolor="#ffffff"
     bordercolor="#666666"
     borderopacity="1"
     objecttolerance="10"
     gridtolerance="10"
     guidetolerance="10"
     inkscape:pageopacity="0"
     inkscape:pageshadow="2"
     inkscape:window-width="1858"
     inkscape:window-height="1057"
     id="namedview1610"
     showgrid="false"
     units="mm"
     height="104mm"
     inkscape:zoom="0.98950477"
     inkscape:cx="68.817918"
     inkscape:cy="146.482"
     inkscape:window-x="54"
     inkscape:window-y="-8"
     inkscape:window-maximized="1"
     inkscape:current-layer="g1606" />
  <metadata
     id="metadata1542">
Created by potrace 1.16, written by Peter Selinger 2001-2019
<rdf:RDF>
  <cc:Work
     rdf:about="">
    <dc:format>image/svg+xml</dc:format>
    <dc:type
       rdf:resource="http://purl.org/dc/dcmitype/StillImage" />
    <dc:title></dc:title>
  </cc:Work>
</rdf:RDF>
</metadata>
  <g
     transform="matrix(0.1,0,0,-0.1,0,954)"
     fill="#000000"
     stroke="none"
     id="g1606">
    <path
       d="m 316,9271.7423 c -14,-17 -16,-64 -16,-448 1,-339 3,-433 14,-446 12,-16 52,-18 541,-18 489,0 529,2 541,18 11,13 13,108 14,448 0,403 -1,432 -18,447 -16,15 -71,17 -539,17 -489,0 -521,-1 -537,-18 z m 524,-447 v -435 H 585 330 v 435 435 h 255 255 z m 540,0 v -435 H 1125 870 v 435 435 h 255 255 z"
       id="path1588"
       style="fill:#4f6d84;fill-opacity:1" />
    <path
       d="m 240,8824.7423 c 0,-321 3,-406 13,-402 9,3 12,92 12,402 0,310 -3,399 -12,403 -10,3 -13,-82 -13,-403 z"
       id="path1590"
       style="fill:#4f6d84;fill-opacity:1" />
    <path
       d="m 1445,9218.7423 c -10,-27 -1,-794 10,-792 14,4 19,783 5,797 -6,6 -11,4 -15,-5 z"
       id="path1592"
       style="fill:#4f6d84;fill-opacity:1" />
    <path
       style="fill:none;stroke:#4f6d84;stroke-width:15.75;stroke-linecap:butt;stroke-linejoin:miter;stroke-miterlimit:4;stroke-dasharray:none;stroke-opacity:1"
       d="m 43.582407,9500.2075 8.526993,-1590.7579 1588.583,-1.023 -1.3398,1590.4463 z"
       id="path2175" />
  </g>
</svg>
