<?xml version="1.0" encoding="UTF-8" standalone="no"?>
<svg
   xmlns:dc="http://purl.org/dc/elements/1.1/"
   xmlns:cc="http://creativecommons.org/ns#"
   xmlns:rdf="http://www.w3.org/1999/02/22-rdf-syntax-ns#"
   xmlns:svg="http://www.w3.org/2000/svg"
   xmlns="http://www.w3.org/2000/svg"
   xmlns:sodipodi="http://sodipodi.sourceforge.net/DTD/sodipodi-0.dtd"
   xmlns:inkscape="http://www.inkscape.org/namespaces/inkscape"
   version="1.0"
   width="59mm"
   height="60mm"
   viewBox="0 0 167.24406 170.0787"
   preserveAspectRatio="xMidYMid meet"
   id="svg973"
   sodipodi:docname="Optimise.svg"
   inkscape:version="1.0.2-2 (e86c870879, 2021-01-15)">
  <defs
     id="defs977" />
  <sodipodi:namedview
     pagecolor="#ffffff"
     bordercolor="#666666"
     borderopacity="1"
     objecttolerance="10"
     gridtolerance="10"
     guidetolerance="10"
     inkscape:pageopacity="0"
     inkscape:pageshadow="2"
     inkscape:window-width="1858"
     inkscape:window-height="1057"
     id="namedview975"
     showgrid="false"
     units="mm"
     height="104mm"
     inkscape:zoom="0.69968553"
     inkscape:cx="494.07313"
     inkscape:cy="392.53774"
     inkscape:window-x="54"
     inkscape:window-y="-8"
     inkscape:window-maximized="1"
     inkscape:current-layer="g971" />
  <metadata
     id="metadata907">
Created by potrace 1.16, written by Peter Selinger 2001-2019
<rdf:RDF>
  <cc:Work
     rdf:about="">
    <dc:format>image/svg+xml</dc:format>
    <dc:type
       rdf:resource="http://purl.org/dc/dcmitype/StillImage" />
    <dc:title></dc:title>
  </cc:Work>
</rdf:RDF>
</metadata>
  <g
     transform="matrix(0.1,0,0,-0.1,0,954)"
     fill="#000000"
     stroke="none"
     id="g971">
    <path
       d="m 1121,9291.1574 c -42,-23 -272,-259 -287,-294 -19,-44 -18,-81 1,-81 11,0 15,11 15,37 0,35 10,48 143,180 137,137 144,143 184,143 68,0 124,-65 108,-127 -7,-31 -243,-276 -287,-299 -15,-8 -36,-14 -48,-14 -11,0 -20,-4 -20,-10 0,-18 67,-10 94,11 34,27 238,231 265,265 27,34 28,99 2,137 -39,60 -114,82 -170,52 z"
       id="path947"
       style="fill:#4f6d84;fill-opacity:1" />
    <path
       d="m 827,8838.1574 c -176,-176 -215,-222 -189,-222 9,0 412,403 412,413 0,25 -47,-15 -223,-191 z"
       id="path949"
       style="fill:#4f6d84;fill-opacity:1" />
    <path
       d="m 680,8829.1574 c -23,-8 -290,-276 -290,-290 0,-7 -4,-13 -10,-13 -5,0 -10,-20 -10,-45 0,-41 5,-50 45,-90 40,-40 49,-45 90,-45 25,0 45,5 45,10 0,6 6,10 13,10 7,0 75,63 151,139 137,137 139,140 144,190 3,34 1,51 -7,51 -6,0 -11,-14 -11,-30 0,-17 -11,-47 -24,-68 -35,-55 -249,-260 -280,-268 -35,-8 -85,2 -108,22 -21,20 -33,74 -24,110 9,34 229,260 278,285 21,10 46,19 58,19 11,0 20,5 20,10 0,10 -54,12 -80,3 z"
       id="path951"
       style="fill:#4f6d84;fill-opacity:1" />
    <path
       style="fill:none;stroke:#4f6d84;stroke-width:17.25;stroke-linecap:butt;stroke-linejoin:miter;stroke-miterlimit:4;stroke-dasharray:none;stroke-opacity:1"
       d="m 43.582407,9495.9074 v -1604.022 l 1597.389993,4.7372 -0.9499,1600.501 z"
       id="path1540" />
  </g>
</svg>
