<?xml version="1.0" encoding="UTF-8" standalone="no"?>
<svg
   xmlns:dc="http://purl.org/dc/elements/1.1/"
   xmlns:cc="http://creativecommons.org/ns#"
   xmlns:rdf="http://www.w3.org/1999/02/22-rdf-syntax-ns#"
   xmlns:svg="http://www.w3.org/2000/svg"
   xmlns="http://www.w3.org/2000/svg"
   xmlns:sodipodi="http://sodipodi.sourceforge.net/DTD/sodipodi-0.dtd"
   xmlns:inkscape="http://www.inkscape.org/namespaces/inkscape"
   version="1.0"
   width="59mm"
   height="59mm"
   viewBox="0 0 167.24406 167.24406"
   preserveAspectRatio="xMidYMid meet"
   id="svg76"
   sodipodi:docname="Researcher.svg"
   inkscape:version="1.0.2-2 (e86c870879, 2021-01-15)">
  <defs
     id="defs80" />
  <sodipodi:namedview
     pagecolor="#ffffff"
     bordercolor="#666666"
     borderopacity="1"
     objecttolerance="10"
     gridtolerance="10"
     guidetolerance="10"
     inkscape:pageopacity="0"
     inkscape:pageshadow="2"
     inkscape:window-width="1858"
     inkscape:window-height="1057"
     id="namedview78"
     showgrid="false"
     inkscape:zoom="0.94614445"
     inkscape:cx="537.03953"
     inkscape:cy="322.24236"
     inkscape:window-x="54"
     inkscape:window-y="-8"
     inkscape:window-maximized="1"
     inkscape:current-layer="g74"
     units="mm"
     height="104mm" />
  <metadata
     id="metadata10">
Created by potrace 1.16, written by Peter Selinger 2001-2019
<rdf:RDF>
  <cc:Work
     rdf:about="">
    <dc:format>image/svg+xml</dc:format>
    <dc:type
       rdf:resource="http://purl.org/dc/dcmitype/StillImage" />
    <dc:title></dc:title>
  </cc:Work>
</rdf:RDF>
</metadata>
  <g
     transform="matrix(0.1,0,0,-0.1,0,954)"
     fill="#000000"
     stroke="none"
     id="g74">
    <path
       d="m 696.6313,9232.3183 c -4,-4 -7,-70 -7,-146 0,-120 -3,-147 -24,-206 -20,-58 -92,-205 -116,-237 -4,-5 -25,-41 -45,-80 -21,-38 -49,-89 -62,-113 -26,-48 -22,-68 21,-96 22,-14 67,-16 361,-16 294,0 339,2 361,16 55,36 51,57 -31,184 -76,116 -160,254 -179,295 -10,22 -24,49 -30,60 -6,11 -13,92 -16,180 l -5,160 -111,3 c -60,1 -113,-1 -117,-4 z m 203,-137 c 0,-113 15,-191 54,-279 9,-21 13,-38 9,-39 -53,-4 -87,-13 -136,-35 -66,-29 -97,-32 -150,-15 -39,13 -43,20 -27,49 49,90 70,184 70,316 v 116 h 90 90 z m 135,-414 c 120,-188 165,-262 165,-275 0,-36 -16,-38 -375,-38 -358,0 -375,2 -375,38 0,7 17,44 39,80 21,37 60,104 86,150 46,81 60,93 82,71 6,-6 40,-12 75,-12 49,0 73,6 108,26 35,20 57,25 100,24 l 55,-2 z"
       id="path42"
       style="fill:#4f6d84;fill-opacity:1" />
    <path
       style="fill:none;fill-opacity:1;stroke:#4f6d84;stroke-width:15.75;stroke-linecap:butt;stroke-linejoin:miter;stroke-miterlimit:4;stroke-dasharray:none;stroke-opacity:1"
       d="M 1629.6313,9478.3183 H 49.631299 v -1580 l 1580.000001,20 z"
       id="path82" />
  </g>
</svg>
