<?xml version="1.0" encoding="UTF-8" standalone="no"?>
<svg
   xmlns:dc="http://purl.org/dc/elements/1.1/"
   xmlns:cc="http://creativecommons.org/ns#"
   xmlns:rdf="http://www.w3.org/1999/02/22-rdf-syntax-ns#"
   xmlns:svg="http://www.w3.org/2000/svg"
   xmlns="http://www.w3.org/2000/svg"
   xmlns:sodipodi="http://sodipodi.sourceforge.net/DTD/sodipodi-0.dtd"
   xmlns:inkscape="http://www.inkscape.org/namespaces/inkscape"
   version="1.0"
   width="58mm"
   height="58mm"
   viewBox="0 0 164.40941 164.40941"
   preserveAspectRatio="xMidYMid meet"
   id="svg15127"
   sodipodi:docname="Appearance.svg"
   inkscape:version="1.0.2-2 (e86c870879, 2021-01-15)">
  <defs
     id="defs15131" />
  <sodipodi:namedview
     pagecolor="#ffffff"
     bordercolor="#666666"
     borderopacity="1"
     objecttolerance="10"
     gridtolerance="10"
     guidetolerance="10"
     inkscape:pageopacity="0"
     inkscape:pageshadow="2"
     inkscape:window-width="1858"
     inkscape:window-height="1057"
     id="namedview15129"
     showgrid="false"
     units="mm"
     width="73mm"
     inkscape:zoom="1.3862928"
     inkscape:cx="290.70711"
     inkscape:cy="153.95156"
     inkscape:window-x="54"
     inkscape:window-y="-8"
     inkscape:window-maximized="1"
     inkscape:current-layer="g15125" />
  <metadata
     id="metadata15069">
Created by potrace 1.16, written by Peter Selinger 2001-2019
<rdf:RDF>
  <cc:Work
     rdf:about="">
    <dc:format>image/svg+xml</dc:format>
    <dc:type
       rdf:resource="http://purl.org/dc/dcmitype/StillImage" />
    <dc:title></dc:title>
  </cc:Work>
</rdf:RDF>
</metadata>
  <g
     transform="matrix(0.1,0,0,-0.1,0,963)"
     fill="#000000"
     stroke="none"
     id="g15125">
    <path
       d="m 781.41011,9432.2808 c -3,-4 -18,-11 -34,-14 -35,-7 -116,-77 -137,-120 -30,-58 -37,-91 -45,-212 -8,-126 -20,-164 -65,-207 -14,-13 -25,-26 -25,-29 0,-15 98,-52 151,-56 35,-4 59,-10 59,-17 0,-30 -68,-77 -140,-97 -101,-29 -150,-52 -184,-85 -40,-40 -70,-114 -47,-114 5,0 12,12 15,26 12,47 85,107 161,132 39,12 76,22 83,22 38,0 142,85 142,117 0,6 3,19 6,28 6,14 0,15 -42,10 -48,-7 -113,5 -144,24 -12,8 -11,16 9,51 29,53 51,155 51,245 1,152 91,262 226,273 97,7 170,-36 223.99999,-133 18,-31 25,-64 30,-150 10,-136 25,-204 55,-249 l 23,-34 -26,-11 c -14,-7 -55,-14 -91,-17 -36,-3 -70.99999,-7 -77.99999,-9 -21,-7 -1,-48 46.99999,-96 36,-36 56,-48 91,-54 109,-17 200,-68 233,-130 11,-22 22,-42 24,-44 1,-2 5,-2 8,2 3,3 1,21 -5,40 -21,63 -112,127 -203,142 -62,11 -122,39 -146,70 -31.99999,41 -27.99999,55 16,55 51,1 118,17 148,37 l 25,16 -24,26 c -47,50 -59,89 -67,215 -8,124 -16,160 -43,212 -24,45 -96.99999,109 -146.99999,127 -49,18 -125,23 -134,8 z"
       id="path15105"
       style="fill:#4f6d84;fill-opacity:1" />
    <path
       style="fill:none;stroke:#4f6d84;stroke-width:18.75;stroke-linecap:butt;stroke-linejoin:miter;stroke-miterlimit:4;stroke-dasharray:none;stroke-opacity:1"
       d="M 27.645988,9602.289 V 8000.2036 H 1624.3862 v 1605.6718 z"
       id="path15694" />
  </g>
</svg>
