<?xml version="1.0" encoding="UTF-8" standalone="no"?>
<svg
   xmlns:dc="http://purl.org/dc/elements/1.1/"
   xmlns:cc="http://creativecommons.org/ns#"
   xmlns:rdf="http://www.w3.org/1999/02/22-rdf-syntax-ns#"
   xmlns:svg="http://www.w3.org/2000/svg"
   xmlns="http://www.w3.org/2000/svg"
   xmlns:sodipodi="http://sodipodi.sourceforge.net/DTD/sodipodi-0.dtd"
   xmlns:inkscape="http://www.inkscape.org/namespaces/inkscape"
   version="1.0"
   width="58mm"
   height="59mm"
   viewBox="0 0 164.40941 167.24406"
   preserveAspectRatio="xMidYMid meet"
   id="svg11252"
   sodipodi:docname="Communication.svg"
   inkscape:version="1.0.2-2 (e86c870879, 2021-01-15)">
  <defs
     id="defs11256" />
  <sodipodi:namedview
     pagecolor="#ffffff"
     bordercolor="#666666"
     borderopacity="1"
     objecttolerance="10"
     gridtolerance="10"
     guidetolerance="10"
     inkscape:pageopacity="0"
     inkscape:pageshadow="2"
     inkscape:window-width="1858"
     inkscape:window-height="1057"
     id="namedview11254"
     showgrid="false"
     units="mm"
     width="73mm"
     inkscape:zoom="2.7725857"
     inkscape:cx="101.13357"
     inkscape:cy="157.57626"
     inkscape:window-x="54"
     inkscape:window-y="-8"
     inkscape:window-maximized="1"
     inkscape:current-layer="g11250" />
  <metadata
     id="metadata11194">
Created by potrace 1.16, written by Peter Selinger 2001-2019
<rdf:RDF>
  <cc:Work
     rdf:about="">
    <dc:format>image/svg+xml</dc:format>
    <dc:type
       rdf:resource="http://purl.org/dc/dcmitype/StillImage" />
    <dc:title></dc:title>
  </cc:Work>
</rdf:RDF>
</metadata>
  <g
     transform="matrix(0.1,0,0,-0.1,0,963)"
     fill="#000000"
     stroke="none"
     id="g11250">
    <path
       d="m 657.65105,9421.5434 c -8,-4 -35,-11 -59,-15 -73,-11 -171,-64 -232,-126 -58,-57 -99,-124 -99,-159 0,-11 -4,-23 -10,-26 -16,-10 -12,-105 7,-155 23,-63 66,-123 118,-167 l 45,-37 v -103 c 0,-56 4,-105 10,-108 14,-9 93,40 155,97 53,48 55,49 92,39 54,-15 118,-14 209,5 180.00005,37 286.00005,123 328.00005,266 20,71 20,115 0,186 -42,145 -176,261 -337.00005,294 -71,14 -209,20 -227,9 z m 280,-47 c 108.00005,-43 200.00005,-124 243.00005,-214 30,-61 31,-205 3,-265 -24,-52 -101,-131 -151,-156 -96.00005,-48 -116.00005,-52 -263.00005,-54 l -142,-1 -33,-30 c -39,-37 -118,-94 -129,-94 -4,0 -8,43 -8,95 0,52 -4,95 -9,95 -22,0 -125,117 -148,167 -22,48 -25,65 -20,132 8,117 54,192 164,263 116,76 161,88 328,83 87,-2 132,-8 165,-21 z"
       id="path11222"
       style="fill:#4f6d84;fill-opacity:1" />
    <path
       d="m 1302.6511,9001.5434 c -3,-5 22,-22 56,-37 143,-64 161,-195 43,-304 -42,-38 -44,-43 -44,-95 0,-63 -7,-67 -59,-28 -32,25 -43,27 -130,28 -86,0 -101,3 -143,28 -51.00005,29 -76.00005,21 -31.00005,-11 56.00005,-39 178.00005,-62 227.00005,-43 14,5 35,-3 76,-31 84,-56 90,-53 90,36 0,72 1,74 33,99 40,31 87,117 87,161 0,73 -61,150 -148,187 -51,22 -49,22 -57,10 z"
       id="path11224"
       style="fill:#4f6d84;fill-opacity:1" />
    <path
       style="fill:none;stroke:#4f6d84;stroke-width:18.75;stroke-linecap:butt;stroke-linejoin:miter;stroke-miterlimit:4;stroke-dasharray:none;stroke-opacity:1"
       d="M 27.735071,9599.3958 V 8000.3255 H 1625.8491 v 1601.7207 z"
       id="path11819" />
    <circle
       style="fill:none;stroke:#4f6d84;stroke-width:23.4376"
       id="path14215"
       cx="603.52686"
       cy="-9064.124"
       r="31.368635"
       transform="scale(1,-1)" />
    <circle
       style="fill:none;stroke:#4f6d84;stroke-width:23.4376"
       id="path14215-2"
       cx="728.6626"
       cy="-9069.6611"
       r="31.368635"
       transform="scale(1,-1)" />
    <circle
       style="fill:none;stroke:#4f6d84;stroke-width:23.4376"
       id="path14215-5"
       cx="861.14728"
       cy="-9067.2441"
       r="31.368635"
       transform="scale(1,-1)" />
  </g>
</svg>
