<?xml version="1.0" encoding="UTF-8" standalone="no"?>
<svg
   xmlns:dc="http://purl.org/dc/elements/1.1/"
   xmlns:cc="http://creativecommons.org/ns#"
   xmlns:rdf="http://www.w3.org/1999/02/22-rdf-syntax-ns#"
   xmlns:svg="http://www.w3.org/2000/svg"
   xmlns="http://www.w3.org/2000/svg"
   xmlns:sodipodi="http://sodipodi.sourceforge.net/DTD/sodipodi-0.dtd"
   xmlns:inkscape="http://www.inkscape.org/namespaces/inkscape"
   version="1.0"
   width="58mm"
   height="58mm"
   viewBox="0 0 164.40941 164.40941"
   preserveAspectRatio="xMidYMid meet"
   id="svg13075"
   sodipodi:docname="Demeanor.svg"
   inkscape:version="1.0.2-2 (e86c870879, 2021-01-15)">
  <defs
     id="defs13079" />
  <sodipodi:namedview
     pagecolor="#ffffff"
     bordercolor="#666666"
     borderopacity="1"
     objecttolerance="10"
     gridtolerance="10"
     guidetolerance="10"
     inkscape:pageopacity="0"
     inkscape:pageshadow="2"
     inkscape:window-width="1858"
     inkscape:window-height="1057"
     id="namedview13077"
     showgrid="false"
     units="mm"
     width="73mm"
     inkscape:zoom="1.9605141"
     inkscape:cx="130.15249"
     inkscape:cy="176.64554"
     inkscape:window-x="54"
     inkscape:window-y="-8"
     inkscape:window-maximized="1"
     inkscape:current-layer="g13073" />
  <metadata
     id="metadata13017">
Created by potrace 1.16, written by Peter Selinger 2001-2019
<rdf:RDF>
  <cc:Work
     rdf:about="">
    <dc:format>image/svg+xml</dc:format>
    <dc:type
       rdf:resource="http://purl.org/dc/dcmitype/StillImage" />
    <dc:title></dc:title>
  </cc:Work>
</rdf:RDF>
</metadata>
  <g
     transform="matrix(0.1,0,0,-0.1,0,963)"
     fill="#000000"
     stroke="none"
     id="g13073">
    <path
       d="m 722.51281,9335.0258 c -8,-5 -24,-10 -34,-10 -42,0 -150,-64 -210,-124 -100,-99 -140,-195 -140,-336 0,-141 40,-237 139,-335 100,-100 195,-139 335,-139 47,0 103,6 126,12 151.99999,43 292.99999,184 335.99999,336 15,53 15,199 0,252 -43,152 -186,295 -335.99999,336 -56,15 -198,21 -216,8 z m 261.99995,-53 c 113.00004,-50 193.00004,-130 246.00004,-245 24,-51 26,-69 26,-172 0,-103 -2,-121 -26,-172 -53,-114 -132,-193 -246.00004,-246 -50.99995,-24 -68.99995,-26 -171.99995,-26 -103,0 -121,2 -172,26 -114,53 -193,132 -246,246 -24,51 -26,69 -26,172 0,103 2,121 26,172 51,111 134,195 236,240 73,33 100,37 202,34 76,-3 107,-9 151.99995,-29 z"
       id="path13051"
       style="fill:#4f6d84;fill-opacity:1" />
    <path
       style="fill:none;stroke:#4f6d84;stroke-width:14.25;stroke-linecap:butt;stroke-linejoin:miter;stroke-miterlimit:4;stroke-dasharray:none;stroke-opacity:1"
       d="m 649.29308,8655.1305 c 102.05727,-104.7728 233.92808,-87.3245 324.2134,0"
       id="path14996"
       sodipodi:nodetypes="cc" />
    <circle
       style="fill:none;stroke:#4f6d84;stroke-width:23.4377"
       id="path14215-1"
       cx="667.9566"
       cy="-8964.2842"
       r="31.368641"
       transform="scale(1,-1)" />
    <circle
       style="fill:none;stroke:#4f6d84;stroke-width:23.4377"
       id="path14215-1-3"
       cx="935.7572"
       cy="-8964.2842"
       r="31.368641"
       transform="scale(1,-1)" />
    <path
       style="fill:none;stroke:#4f6d84;stroke-width:16.5;stroke-linecap:butt;stroke-linejoin:miter;stroke-miterlimit:4;stroke-dasharray:none;stroke-opacity:1"
       d="M 24.829527,9606.0589 V 8003.8821 H 1619.7544 V 9606.778 Z"
       id="path15067" />
  </g>
</svg>
