<?xml version="1.0" encoding="UTF-8" standalone="no"?>
<svg
   xmlns:dc="http://purl.org/dc/elements/1.1/"
   xmlns:cc="http://creativecommons.org/ns#"
   xmlns:rdf="http://www.w3.org/1999/02/22-rdf-syntax-ns#"
   xmlns:svg="http://www.w3.org/2000/svg"
   xmlns="http://www.w3.org/2000/svg"
   xmlns:sodipodi="http://sodipodi.sourceforge.net/DTD/sodipodi-0.dtd"
   xmlns:inkscape="http://www.inkscape.org/namespaces/inkscape"
   version="1.0"
   width="58mm"
   height="58mm"
   viewBox="0 0 164.40942 164.40941"
   preserveAspectRatio="xMidYMid meet"
   id="svg15754"
   sodipodi:docname="Poise.svg"
   inkscape:version="1.0.2-2 (e86c870879, 2021-01-15)">
  <defs
     id="defs15758" />
  <sodipodi:namedview
     pagecolor="#ffffff"
     bordercolor="#666666"
     borderopacity="1"
     objecttolerance="10"
     gridtolerance="10"
     guidetolerance="10"
     inkscape:pageopacity="0"
     inkscape:pageshadow="2"
     inkscape:window-width="1858"
     inkscape:window-height="1057"
     id="namedview15756"
     showgrid="false"
     units="mm"
     width="73mm"
     inkscape:zoom="1.3862928"
     inkscape:cx="442.4652"
     inkscape:cy="215.65584"
     inkscape:window-x="54"
     inkscape:window-y="-8"
     inkscape:window-maximized="1"
     inkscape:current-layer="svg15754" />
  <metadata
     id="metadata15696">
Created by potrace 1.16, written by Peter Selinger 2001-2019
<rdf:RDF>
  <cc:Work
     rdf:about="">
    <dc:format>image/svg+xml</dc:format>
    <dc:type
       rdf:resource="http://purl.org/dc/dcmitype/StillImage" />
    <dc:title></dc:title>
  </cc:Work>
</rdf:RDF>
</metadata>
  <g
     transform="matrix(0.1,0,0,-0.1,0,220.7326)"
     fill="#000000"
     stroke="none"
     id="g15752">
    <path
       d="m 645,1900 c 8,-72 3,-83 -93,-182 -57,-59 -63,-70 -57,-96 8,-41 58,-85 93,-85 16,0 50,14 75,30 38,26 52,30 86,26 23,-3 41,-10 41,-15 0,-23 -43,-87 -85,-128 -102,-98 -147,-206 -125,-301 7,-26 22,-56 34,-68 22,-21 30,-21 234,-19 133,2 212,7 212,13 0,6 -80,11 -215,13 l -215,2 -15,30 c -8,16 -15,55 -15,87 0,73 30,128 129,237 55,61 73,87 77,118 4,23 17,49 31,62 25,24 41,68 35,104 -6,36 -22,25 -22,-16 0,-44 -21,-72 -70,-92 -25,-10 -36,-11 -51,-2 -16,10 -27,7 -70,-23 -28,-19 -59,-35 -69,-35 -17,0 -80,62 -80,78 0,4 21,27 46,52 26,25 65,69 87,97 35,47 38,57 32,89 -6,33 -4,36 12,30 57,-23 105,-34 159,-39 91,-7 160,-56 200,-142 29,-61 26,-272 -5,-375 -27,-93 -28,-99 -16,-100 21,-3 76,237 75,328 -1,48 -23,140 -43,177 -48,89 -115,127 -254,145 -48,6 -86,18 -113,35 -22,14 -42,25 -46,25 -3,0 -3,-27 1,-60 z"
       id="path15734"
       style="fill:#4f6d84;fill-opacity:1" />
    <path
       d="m 802,1948 c 3,-8 31,-16 65,-20 97,-11 189,-84 235,-186 29,-63 36,-260 14,-342 -8,-30 -11,-59 -6,-63 11,-13 18,2 31,74 18,97 22,208 9,254 -38,128 -72,184 -141,235 -64,46 -218,82 -207,48 z"
       id="path15736"
       style="fill:#4f6d84;fill-opacity:1" />
    <path
       d="m 567,1023 c -4,-3 -7,-10 -7,-15 0,-4 129,-8 286,-8 224,0 285,3 282,13 -4,9 -70,13 -280,15 -151,1 -277,-1 -281,-5 z"
       id="path15738"
       style="fill:#4f6d84;fill-opacity:1" />
    <path
       style="fill:none;stroke:#4f6d84;stroke-width:18.75;stroke-linecap:butt;stroke-linejoin:miter;stroke-miterlimit:4;stroke-dasharray:none;stroke-opacity:1"
       d="M 22.992977,2182.6423 32.995171,591.23562 H 1621.0671 V 2179.9372 Z"
       id="path16321" />
  </g>
</svg>
