<?xml version="1.0" encoding="UTF-8" standalone="no"?>
<svg
   xmlns:dc="http://purl.org/dc/elements/1.1/"
   xmlns:cc="http://creativecommons.org/ns#"
   xmlns:rdf="http://www.w3.org/1999/02/22-rdf-syntax-ns#"
   xmlns:svg="http://www.w3.org/2000/svg"
   xmlns="http://www.w3.org/2000/svg"
   xmlns:sodipodi="http://sodipodi.sourceforge.net/DTD/sodipodi-0.dtd"
   xmlns:inkscape="http://www.inkscape.org/namespaces/inkscape"
   version="1.0"
   width="59mm"
   height="58mm"
   viewBox="0 0 167.24406 164.40941"
   preserveAspectRatio="xMidYMid meet"
   id="svg12448"
   sodipodi:docname="Reliability.svg"
   inkscape:version="1.0.2-2 (e86c870879, 2021-01-15)">
  <defs
     id="defs12452" />
  <sodipodi:namedview
     pagecolor="#ffffff"
     bordercolor="#666666"
     borderopacity="1"
     objecttolerance="10"
     gridtolerance="10"
     guidetolerance="10"
     inkscape:pageopacity="0"
     inkscape:pageshadow="2"
     inkscape:window-width="1858"
     inkscape:window-height="1057"
     id="namedview12450"
     showgrid="false"
     units="mm"
     width="73mm"
     inkscape:zoom="1.9605141"
     inkscape:cx="130.88977"
     inkscape:cy="159.98831"
     inkscape:window-x="54"
     inkscape:window-y="-8"
     inkscape:window-maximized="1"
     inkscape:current-layer="g12446"
     inkscape:document-rotation="0" />
  <metadata
     id="metadata12390">
Created by potrace 1.16, written by Peter Selinger 2001-2019
<rdf:RDF>
  <cc:Work
     rdf:about="">
    <dc:format>image/svg+xml</dc:format>
    <dc:type
       rdf:resource="http://purl.org/dc/dcmitype/StillImage" />
    <dc:title />
  </cc:Work>
</rdf:RDF>
</metadata>
  <g
     transform="matrix(0.1,0,0,-0.1,0,963)"
     fill="#000000"
     stroke="none"
     id="g12446">
    <path
       d="m 715.65105,9314.6137 c -145,-40 -253,-147 -299,-297 -31,-104 -19,-204 37,-308 81,-148 271,-243 426,-212 173.00005,35 294.00005,145 340.00005,311 22,79 23,122 3,196 -59,227 -291.00005,369 -507.00005,310 z m 274,-54 c 81.00005,-40 143.00005,-103 184.00005,-186 26,-55 29,-69 29,-165 0,-96 -3,-110 -29,-165 -41,-82 -103,-146 -184.00005,-186 -63,-32 -73,-34 -172,-34 -96,0 -110,3 -165,29 -82,41 -146,103 -186,184 -32,63 -34,73 -34,172 0,96 3,110 29,164 50,102 123,168 231,208 38,14 71,18 140,15 78,-3 99,-7 157,-36 z"
       id="path12422"
       style="fill:#4f6d84;fill-opacity:1" />
    <path
       style="fill:none;stroke:#4f6d84;stroke-width:18.75;stroke-linecap:butt;stroke-linejoin:miter;stroke-miterlimit:4;stroke-dasharray:none;stroke-opacity:1"
       d="M 1627.3035,9600.3995 V 8022.3223 H 29.291503 v 1578.7535 z"
       id="path13015" />
    <path
       style="fill:none;stroke:#4f6d84;stroke-width:13.488;stroke-linecap:butt;stroke-linejoin:miter;stroke-miterlimit:4;stroke-dasharray:none;stroke-opacity:1"
       d="M 583.63464,9336.9082 C 466.40915,9337.7261 410.3891,9272.6167 411.00725,9146.5001"
       id="path14834"
       sodipodi:nodetypes="cc" />
    <path
       style="fill:none;stroke:#4f6d84;stroke-width:13.4881;stroke-linecap:butt;stroke-linejoin:miter;stroke-miterlimit:4;stroke-dasharray:none;stroke-opacity:1"
       d="m 1090.5101,9322.3792 c 117.225,0.8179 173.2451,-64.2915 172.6274,-190.4081"
       id="path14834-5"
       sodipodi:nodetypes="cc" />
    <path
       style="fill:none;stroke:#4f6d84;stroke-width:13.5;stroke-linecap:butt;stroke-linejoin:miter;stroke-miterlimit:4;stroke-dasharray:none;stroke-opacity:1"
       d="M 802.66002,9037.98 V 8877.3079 L 913.12209,8765.4112"
       id="path14885" />
    <path
       style="fill:none;stroke:#4f6d84;stroke-width:13.5;stroke-linecap:butt;stroke-linejoin:miter;stroke-miterlimit:4;stroke-dasharray:none;stroke-opacity:1"
       d="M 513.33781,8584.9141 443.04376,8494.536"
       id="path14916" />
    <path
       style="fill:none;stroke:#4f6d84;stroke-width:13.5;stroke-linecap:butt;stroke-linejoin:miter;stroke-miterlimit:4;stroke-dasharray:none;stroke-opacity:1"
       d="m 1103.0033,8574.3258 70.2941,-90.3781"
       id="path14916-9" />
  </g>
</svg>
