<?xml version="1.0" encoding="UTF-8" standalone="no"?>
<svg
   xmlns:dc="http://purl.org/dc/elements/1.1/"
   xmlns:cc="http://creativecommons.org/ns#"
   xmlns:rdf="http://www.w3.org/1999/02/22-rdf-syntax-ns#"
   xmlns:svg="http://www.w3.org/2000/svg"
   xmlns="http://www.w3.org/2000/svg"
   xmlns:sodipodi="http://sodipodi.sourceforge.net/DTD/sodipodi-0.dtd"
   xmlns:inkscape="http://www.inkscape.org/namespaces/inkscape"
   version="1.0"
   width="58mm"
   height="57mm"
   viewBox="0 0 164.40941 161.57477"
   preserveAspectRatio="xMidYMid meet"
   id="svg5664"
   sodipodi:docname="Creative.svg"
   inkscape:version="1.0.2-2 (e86c870879, 2021-01-15)">
  <defs
     id="defs5668" />
  <sodipodi:namedview
     pagecolor="#ffffff"
     bordercolor="#666666"
     borderopacity="1"
     objecttolerance="10"
     gridtolerance="10"
     guidetolerance="10"
     inkscape:pageopacity="0"
     inkscape:pageshadow="2"
     inkscape:window-width="1858"
     inkscape:window-height="1057"
     id="namedview5666"
     showgrid="false"
     units="mm"
     width="73mm"
     inkscape:zoom="1.3720452"
     inkscape:cx="359.30472"
     inkscape:cy="270.28851"
     inkscape:window-x="54"
     inkscape:window-y="-8"
     inkscape:window-maximized="1"
     inkscape:current-layer="g5662" />
  <metadata
     id="metadata5600">
Created by potrace 1.16, written by Peter Selinger 2001-2019
<rdf:RDF>
  <cc:Work
     rdf:about="">
    <dc:format>image/svg+xml</dc:format>
    <dc:type
       rdf:resource="http://purl.org/dc/dcmitype/StillImage" />
    <dc:title></dc:title>
  </cc:Work>
</rdf:RDF>
</metadata>
  <g
     transform="matrix(0.1,0,0,-0.1,0,973)"
     fill="#000000"
     stroke="none"
     id="g5662">
    <path
       d="m 439.66854,9391.5449 c -53,-53 -97,-104 -97,-112 0,-22 226,-245 234,-231 4,6 -4,22 -18,35 -32,29 -32,33 0,67 14,15 21,29 16,33 -5,3 -20,-6 -32,-19 -13,-14 -28,-25 -33,-25 -11,0 -67,55 -67,66 0,5 25,34 56,65 31,31 52,59 47,62 -5,3 -34,-18 -63,-48 -30,-30 -59,-55 -66,-55 -15,0 -44,33 -44,51 0,18 161,179 178,179 7,0 60,-48 117,-107 56,-60 106,-105 110,-101 10,10 -205,238 -225,238 -8,0 -59,-44 -113,-98 z"
       id="path5630"
       style="fill:#4f6d84;fill-opacity:1" />
    <path
       d="m 759.66854,9161.5449 c -180,-180 -327,-332 -327,-337 0,-13 -69,-233 -83,-262 -13,-29 -2,-41 23,-25 11,7 26,12 35,12 8,0 34,6 57,14 24,8 77,24 118,36 l 75,22 323,321 c 210.99996,211 321.99996,329 321.99996,342 0,24 -177,205 -200,205 -8,0 -161.99996,-147 -342.99996,-328 z m 434.99996,221 c 43,-43 78,-86 78,-97 0,-10 -23,-41 -50,-68 l -51,-50 -89,88 c -50,48 -89.99996,93 -89.99996,99 0,16 94.99996,105 111.99996,105 7,0 48,-35 90,-77 z m -217.99996,-59 c 9,-3 16,-13 16,-21 0,-15 -452,-473 -467,-473 -4,0 -15,5 -23,10 -12,7 33,58 220,248 129,131 236,240 237,240 1,1 8,-1 17,-4 z m -114,-349 c -223,-223 -237,-235 -272,-235 -37,0 -38,1 -38,38 0,36 11,49 235,272 l 234.99996,234 38,-37 37,-37 z m 277.99996,183 c 4,-18 -465.99996,-501 -478.99996,-493 -4,3 -10,17 -14,32 -6,25 11,44 226,255 136.99996,135 238.99996,228 247.99996,226 9,-2 17,-11 19,-20 z m -630.99996,-346 c 6,-4 13,-28 15,-52 l 3,-45 45,-3 c 24,-2 48,-9 52,-15 12,-19 9,-57 -4,-62 -7,-2 -47,-13 -88,-25 -41,-12 -90,-27 -107,-33 -18,-6 -35,-8 -39,-5 -5,6 58,217 72,239 6,11 35,11 51,1 z"
       id="path5632"
       style="fill:#4f6d84;fill-opacity:1" />
    <path
       d="m 1062.6685,8961.5449 c 0,-4 43,-50 96,-102 52,-52 100,-103 106,-114 9,-16 -2,-31 -73,-102 -46,-46 -91,-84 -100,-84 -17,0 -49,30 -49,46 0,5 25,34 55,64 30,29 51,58 48,63 -3,5 -31,-16 -62,-47 -31,-31 -60,-56 -65,-56 -10,0 -65.99996,56 -65.99996,66 0,4 12,20 26,35 14,15 21,29 16,33 -5,3 -20,-6 -32,-19 -29,-31 -37,-31 -66,0 -15,16 -25,21 -30,14 -8,-14 204.99996,-229 226.99996,-229 20,0 181,162 194,195 8,24 1,34 -100,135 -103,103 -125,121 -125,102 z"
       id="path5634"
       style="fill:#4f6d84;fill-opacity:1" />
    <path
       style="fill:none;stroke:#4f6d84;stroke-width:15.75;stroke-linecap:butt;stroke-linejoin:miter;stroke-miterlimit:4;stroke-dasharray:none;stroke-opacity:1"
       d="M 23.915028,9707.4515 V 8129.2035 H 1623.1312 v 1580.8882 z"
       id="path6231" />
  </g>
</svg>
