<?xml version="1.0" encoding="UTF-8" standalone="no"?>
<svg
   xmlns:dc="http://purl.org/dc/elements/1.1/"
   xmlns:cc="http://creativecommons.org/ns#"
   xmlns:rdf="http://www.w3.org/1999/02/22-rdf-syntax-ns#"
   xmlns:svg="http://www.w3.org/2000/svg"
   xmlns="http://www.w3.org/2000/svg"
   xmlns:sodipodi="http://sodipodi.sourceforge.net/DTD/sodipodi-0.dtd"
   xmlns:inkscape="http://www.inkscape.org/namespaces/inkscape"
   version="1.0"
   width="58mm"
   height="58mm"
   viewBox="0 0 164.40941 164.40942"
   preserveAspectRatio="xMidYMid meet"
   id="svg4978"
   sodipodi:docname="Divergent_Thinker.svg"
   inkscape:version="1.0.2-2 (e86c870879, 2021-01-15)">
  <defs
     id="defs4982" />
  <sodipodi:namedview
     pagecolor="#ffffff"
     bordercolor="#666666"
     borderopacity="1"
     objecttolerance="10"
     gridtolerance="10"
     guidetolerance="10"
     inkscape:pageopacity="0"
     inkscape:pageshadow="2"
     inkscape:window-width="1858"
     inkscape:window-height="1057"
     id="namedview4980"
     showgrid="false"
     units="mm"
     height="73mm"
     inkscape:zoom="0.97018248"
     inkscape:cx="-109.97418"
     inkscape:cy="257.06453"
     inkscape:window-x="54"
     inkscape:window-y="-8"
     inkscape:window-maximized="1"
     inkscape:current-layer="g4976" />
  <metadata
     id="metadata4914">
Created by potrace 1.16, written by Peter Selinger 2001-2019
<rdf:RDF>
  <cc:Work
     rdf:about="">
    <dc:format>image/svg+xml</dc:format>
    <dc:type
       rdf:resource="http://purl.org/dc/dcmitype/StillImage" />
    <dc:title></dc:title>
  </cc:Work>
</rdf:RDF>
</metadata>
  <g
     transform="matrix(0.1,0,0,-0.1,0,973)"
     fill="#000000"
     stroke="none"
     id="g4976">
    <path
       d="m 491.20225,9350.3876 c -80,-59 -90,-72 -73,-94 8,-9 40,-36 73,-60 l 58,-43 h 217 c 155,0 220,3 229,12 15.99995,16 15.99995,200 0,216 -9,9 -74,12 -229,12 h -217 z m 486,-77 v -90 h -215 -215 l -50,38 c -27,20 -49,44 -49,52 0,8 21,32 47,52 l 47,37 h 218 l 217,1 z"
       id="path4940"
       style="fill:#4f6d84;fill-opacity:1" />
    <path
       d="m 689.20225,9111.3876 c -16,-16 -16,-200 0,-216 9,-9 74,-12 229,-12 h 216.99995 l 58,43 c 80,59 90,72 73,94 -8,9 -40,36 -73,60 l -58,43 H 918.20225 c -155,0 -220,-3 -229,-12 z m 497.99995,-55 c 27,-21 49,-45 49,-53 0,-8 -22,-32 -49,-52 l -50,-38 h -214.99995 -215 v 90 90 h 215 214.99995 z"
       id="path4942"
       style="fill:#4f6d84;fill-opacity:1" />
    <path
       style="fill:none;stroke:#4f6d84;stroke-width:18.75;stroke-linecap:butt;stroke-linejoin:miter;stroke-miterlimit:4;stroke-dasharray:none;stroke-opacity:1"
       d="M 18.416839,9714.1488 V 8112.3191 H 1617.1817 v 1601.8297 z"
       id="path5598" />
  </g>
  <path
     style="fill:none;stroke:#4f6d84;stroke-width:1.5;stroke-linecap:butt;stroke-linejoin:miter;stroke-miterlimit:4;stroke-dasharray:none;stroke-opacity:1"
     d="M 84.180899,84.891886 V 108.05531"
     id="path5545" />
  <path
     style="fill:none;stroke:#4f6d84;stroke-width:1.275;stroke-linecap:butt;stroke-linejoin:miter;stroke-miterlimit:4;stroke-dasharray:none;stroke-opacity:1"
     d="m 84.232149,28.855876 -0.05125,3.53601"
     id="path5567" />
</svg>
