<?xml version="1.0" encoding="UTF-8" standalone="no"?>
<svg
   xmlns:dc="http://purl.org/dc/elements/1.1/"
   xmlns:cc="http://creativecommons.org/ns#"
   xmlns:rdf="http://www.w3.org/1999/02/22-rdf-syntax-ns#"
   xmlns:svg="http://www.w3.org/2000/svg"
   xmlns="http://www.w3.org/2000/svg"
   xmlns:sodipodi="http://sodipodi.sourceforge.net/DTD/sodipodi-0.dtd"
   xmlns:inkscape="http://www.inkscape.org/namespaces/inkscape"
   version="1.0"
   width="58mm"
   height="58mm"
   viewBox="0 0 164.4094 164.40942"
   preserveAspectRatio="xMidYMid meet"
   id="svg6930"
   sodipodi:docname="Sharing_Ideas.svg"
   inkscape:version="1.0.2-2 (e86c870879, 2021-01-15)">
  <defs
     id="defs6934" />
  <sodipodi:namedview
     pagecolor="#ffffff"
     bordercolor="#666666"
     borderopacity="1"
     objecttolerance="10"
     gridtolerance="10"
     guidetolerance="10"
     inkscape:pageopacity="0"
     inkscape:pageshadow="2"
     inkscape:window-width="1858"
     inkscape:window-height="1057"
     id="namedview6932"
     showgrid="false"
     units="mm"
     height="104mm"
     inkscape:zoom="2.7440904"
     inkscape:cx="211.94517"
     inkscape:cy="134.7195"
     inkscape:window-x="54"
     inkscape:window-y="-8"
     inkscape:window-maximized="1"
     inkscape:current-layer="g6928" />
  <metadata
     id="metadata6866">
Created by potrace 1.16, written by Peter Selinger 2001-2019
<rdf:RDF>
  <cc:Work
     rdf:about="">
    <dc:format>image/svg+xml</dc:format>
    <dc:type
       rdf:resource="http://purl.org/dc/dcmitype/StillImage" />
    <dc:title></dc:title>
  </cc:Work>
</rdf:RDF>
</metadata>
  <g
     transform="matrix(0.1,0,0,-0.1,0,973)"
     fill="#000000"
     stroke="none"
     id="g6928">
    <path
       d="m 1260.3694,9044.1264 c 0,-263 3,-405 10,-405 7,0 10,142 10,405 0,263 -3,405 -10,405 -7,0 -10,-142 -10,-405 z"
       id="path6908"
       style="fill:#4f6d84;fill-opacity:1" />
    <path
       d="m 1159.3694,9377.1264 c -68,-52 -163.00002,-96 -248.00002,-114 -42,-10 -156,-17 -315,-21 -224,-5 -251,-8 -268,-25 -16,-16 -18,-36 -18,-171 0,-186 2,-190 91,-197 l 62,-5 14,-49 c 8,-27 26,-64 39,-82 26,-34 106,-74 148,-74 43,0 29,14 -24,27 -67,16 -104,44 -130,98 -28,58 -24,79 18,83 29,3 34,-1 48,-33 15,-36 65,-75 97,-75 28,0 19,16 -14,26 -36,10 -75,56 -64,74 9,15 217,5 315,-15 83,-17 180.00002,-61 249.00002,-113 30,-23 58,-39 63,-36 4,3 8,169 8,369 0,200 -4,366 -8,369 -5,3 -33,-13 -63,-36 z m 51,-332 c 0,-177 -3,-325 -6,-329 -4,-3 -27,8 -52,25 -90,62 -171.00002,93 -292.00002,112 -19,3 -110,6 -202,7 l -168,1 v 184 184 h 175 c 248,0 352.00002,25 480.00002,113 28,19 53,33 58,30 4,-2 7,-149 7,-327 z m -745.00002,-1 v -180 h -54 c -77,1 -81,9 -81,180 0,173 7,186 95,182 l 40,-2 z"
       id="path6910"
       style="fill:#4f6d84;fill-opacity:1" />
    <path
       style="fill:none;stroke:#4f6d84;stroke-width:15.75;stroke-linecap:butt;stroke-linejoin:miter;stroke-miterlimit:4;stroke-dasharray:none;stroke-opacity:1"
       d="M 25.008123,9710.3712 V 8108.2237 H 1624.4978 v 1604.0801 z"
       id="path7528" />
  </g>
  <path
     style="fill:none;stroke:#4f6d84;stroke-width:1.8692;stroke-linecap:butt;stroke-linejoin:miter;stroke-miterlimit:4;stroke-dasharray:none;stroke-opacity:1"
     d="m 28.845481,52.393768 v 32.29901"
     id="path7497" />
</svg>
