<?xml version="1.0" encoding="UTF-8" standalone="no"?>
<svg
   xmlns:dc="http://purl.org/dc/elements/1.1/"
   xmlns:cc="http://creativecommons.org/ns#"
   xmlns:rdf="http://www.w3.org/1999/02/22-rdf-syntax-ns#"
   xmlns:svg="http://www.w3.org/2000/svg"
   xmlns="http://www.w3.org/2000/svg"
   xmlns:sodipodi="http://sodipodi.sourceforge.net/DTD/sodipodi-0.dtd"
   xmlns:inkscape="http://www.inkscape.org/namespaces/inkscape"
   version="1.0"
   width="58mm"
   height="57mm"
   viewBox="0 0 164.40948 161.57477"
   preserveAspectRatio="xMidYMid meet"
   id="svg7594"
   sodipodi:docname="Value_Driven.svg"
   inkscape:version="1.0.2-2 (e86c870879, 2021-01-15)">
  <defs
     id="defs7598" />
  <sodipodi:namedview
     pagecolor="#ffffff"
     bordercolor="#666666"
     borderopacity="1"
     objecttolerance="10"
     gridtolerance="10"
     guidetolerance="10"
     inkscape:pageopacity="0"
     inkscape:pageshadow="2"
     inkscape:window-width="1858"
     inkscape:window-height="1057"
     id="namedview7596"
     showgrid="false"
     units="mm"
     width="53mm"
     inkscape:zoom="0.97018248"
     inkscape:cx="29.610251"
     inkscape:cy="251.92365"
     inkscape:window-x="54"
     inkscape:window-y="-8"
     inkscape:window-maximized="1"
     inkscape:current-layer="g7592" />
  <metadata
     id="metadata7530">
Created by potrace 1.16, written by Peter Selinger 2001-2019
<rdf:RDF>
  <cc:Work
     rdf:about="">
    <dc:format>image/svg+xml</dc:format>
    <dc:type
       rdf:resource="http://purl.org/dc/dcmitype/StillImage" />
    <dc:title></dc:title>
  </cc:Work>
</rdf:RDF>
</metadata>
  <g
     transform="matrix(0.1,0,0,-0.1,0,973)"
     fill="#000000"
     stroke="none"
     id="g7592">
    <path
       d="m 996.95295,9412.3835 c -41,-36 -106,-93 -145,-127 -38,-34 -94,-83 -123,-110 l -53,-50 -82,-1 c -93,-2 -139,-20 -208,-82 -43,-39 -59,-65 -83,-134 -39,-110 7,-247 108,-324 44,-34 130,-65 178,-65 125,0 247,90 282,207 18,59 18,74 0,168 -5,29 -3,32 65,65 l 70.99995,34 v 62 63 l 58,3 57,3 3,73 3,72 h 59 60 v 91 c 0,114 -4,119 -102,119 l -73,-1 z m 219.99995,-38 v -74 l -57,-3 -58,-3 -3,-72 -3,-72 -57,-3 -56.99995,-3 -3,-71 -3,-70 -74,-37 -74,-36 14,-35 c 21,-49 19,-142 -4,-193 -25,-55 -92,-118 -146,-139 -33,-12 -64,-15 -117,-12 -96,6 -164,46 -217,127 -34,53 -36,60 -36,142 0,89 7,114 54,178 52,70 155,112 246,100 28,-3 52,-3 55,0 3,4 57,51 120,106 136,118 180,157 234.99995,207 38,36 43,38 113,38 h 72 z"
       id="path7576"
       style="fill:#4f6d84;fill-opacity:1" />
    <path
       d="m 490.95295,8860.3835 c -59,-36 -68,-108 -19,-156 31,-32 68,-40 106,-24 33,13 69,61 69,92 0,31 -29,76 -60,92 -38,20 -58,19 -96,-4 z m 106,-31 c 12,-12 20,-33 20,-55 0,-46 -29,-75 -75,-75 -46,0 -75,29 -75,75 0,22 8,43 20,55 12,12 33,20 55,20 22,0 43,-8 55,-20 z"
       id="path7578"
       style="fill:#4f6d84;fill-opacity:1" />
    <path
       style="fill:none;stroke:#4f6d84;stroke-width:16.5;stroke-linecap:butt;stroke-linejoin:miter;stroke-miterlimit:4;stroke-dasharray:none;stroke-opacity:1"
       d="M 10.583324,9719.0968 19.132022,8127.8637 H 1606.6909 V 9718.613 Z"
       id="path8183" />
  </g>
  <path
     style="fill:none;stroke:#4f6d84;stroke-width:2.09191;stroke-linecap:butt;stroke-linejoin:miter;stroke-miterlimit:4;stroke-dasharray:none;stroke-opacity:1"
     d="M 74.868948,64.378467 109.78424,33.177377"
     id="path8161" />
</svg>
